<svg xmlns="http://www.w3.org/2000/svg" viewBox="0 0 400 300" width="406" height="306" class="illustration styles_illustrationTablet__1DWOa"><g id="_374_accountant_flatline" data-name="#374_accountant_flatline"><path d="M296.78,190.67s20.46-90.28,10.42-96.53-78.61-11.57-87.31,0S205,177.63,205,177.63Z" fill="#231f20"></path><path d="M296.78,191.17h-.07l-91.77-13a.51.51,0,0,1-.43-.54c.26-2.94,6.3-72.18,15-83.74,5.54-7.36,32.32-7.26,43.57-6.88,19.9.68,39.41,3.65,44.4,6.76,10.22,6.36-9.35,93.36-10.19,97.06A.51.51,0,0,1,296.78,191.17Zm-91.23-14,90.84,12.91c5.72-25.34,18.48-90.6,10.55-95.54-9.5-5.9-78-11.62-86.65-.13C212.15,105.29,206.11,171,205.55,177.2Z" fill="#231f20"></path><path d="M83.21,209.65C95.09,189,142.86,173.55,200,173.55S304.91,189,316.79,209.65h2.84v10c0,25.47-53.56,46.12-119.63,46.12S80.37,245.14,80.37,219.67v-10Z" fill="#231f20"></path><path d="M200,266.29c-66.24,0-120.13-20.91-120.13-46.62v-10a.5.5,0,0,1,.5-.5h2.55c6-10.09,20.7-19.24,41.56-25.77,21.26-6.66,48.08-10.33,75.52-10.33s54.26,3.67,75.52,10.33c20.86,6.53,35.6,15.68,41.56,25.77h2.55a.5.5,0,0,1,.5.5v10C320.13,245.38,266.24,266.29,200,266.29ZM80.87,210.15v9.52c0,25.16,53.44,45.62,119.13,45.62s119.13-20.46,119.13-45.62v-9.52h-2.34a.52.52,0,0,1-.44-.25c-11.94-20.77-60.87-35.85-116.35-35.85S95.59,189.13,83.65,209.9a.52.52,0,0,1-.44.25Z" fill="#231f20"></path><path d="M210.92,35.32s8.24-4,13.65,3.15,2.15,15.3,14.28,20.4,2.3,19.81,11.13,25.19c0,0-6.69,4.78-12.33,6.29L233.58,87l.29,3.61s-35.14,15.85-49.71,5.79l-1.82-4.35-2.74,3-9-6s7-3.66,4.91-10.74-6.64-13.23,1.94-22.26,2-14.72,12.56-18.74A43.37,43.37,0,0,1,210.92,35.32Z" fill="#fff"></path><path d="M197.48,100.3c-5.72,0-10.27-1.15-13.6-3.45a.52.52,0,0,1-.18-.21L182.18,93,180,95.47a.51.51,0,0,1-.65.09l-9-6a.52.52,0,0,1-.22-.44.49.49,0,0,1,.27-.42c.27-.15,6.57-3.57,4.66-10.16-.34-1.17-.76-2.34-1.17-3.47-2-5.67-4.12-11.54,3.23-19.27a19.06,19.06,0,0,0,5.2-10.1c.8-3.47,1.5-6.46,7.54-8.77a44.49,44.49,0,0,1,21-2.18c1.18-.51,8.94-3.48,14.12,3.37a24.39,24.39,0,0,1,3.64,8c1.45,4.67,2.82,9.08,10.44,12.27,6.85,2.88,7,8.87,7.14,14.15.11,4.5.23,8.75,4.05,11.08a.47.47,0,0,1,.24.41.46.46,0,0,1-.21.42c-.27.2-6.82,4.85-12.49,6.37a.49.49,0,0,1-.45-.09l-3.16-2.58.2,2.45a.51.51,0,0,1-.3.5A133.31,133.31,0,0,1,214.6,97.8,70.57,70.57,0,0,1,197.48,100.3Zm-12.91-4.19c13.5,9.12,45.23-4.23,48.77-5.77l-.26-3.26a.53.53,0,0,1,.27-.49.51.51,0,0,1,.55.06l3.86,3.15c4.47-1.27,9.61-4.57,11.33-5.74-3.67-2.68-3.79-7.15-3.9-11.49-.14-5.46-.28-10.62-6.53-13.24-8-3.38-9.55-8.22-11-12.91a23.29,23.29,0,0,0-3.48-7.64c-5.1-6.75-12.95-3.05-13-3a.47.47,0,0,1-.31,0,43.31,43.31,0,0,0-20.67,2.1C184.61,40,184,42.52,183.23,46a20.07,20.07,0,0,1-5.45,10.56c-6.93,7.29-5,12.61-3,18.24.41,1.14.83,2.33,1.18,3.53,1.74,6-2.69,9.69-4.46,10.89l8,5.28L182,91.75a.53.53,0,0,1,.46-.16.51.51,0,0,1,.38.3Z" fill="#231f20"></path><path d="M218.66,92.74s31.12-.25,44.55,8.45,6,37.86,4.16,47.58-10.18,47.37-10.18,47.37l-70.52,4.09s-12.45-61.76-13.38-79.81c-.19-3.75,4.25-17.87,7.21-20C190.5,93.14,204.57,92.13,218.66,92.74Z" fill="#5bc795"></path><path d="M225.9,101.76l-7.17,59-18.27-47.27S218.93,109,225.9,101.76Z" fill="#231f20"></path><path d="M218.73,161.3a.48.48,0,0,1-.46-.32L200,113.71a.45.45,0,0,1,0-.41.52.52,0,0,1,.32-.26c.19,0,18.41-4.56,25.2-11.63a.5.5,0,0,1,.57-.1.48.48,0,0,1,.28.51l-7.16,59a.51.51,0,0,1-.43.44Zm-17.6-47.42,17.35,44.88,6.75-55.67C218.34,109.18,204.16,113.09,201.13,113.88Z" fill="#231f20"></path><ellipse cx="200" cy="209.65" rx="119.63" ry="46.12" fill="#fff"></ellipse><path d="M200,256.27c-66.24,0-120.13-20.92-120.13-46.62S133.76,163,200,163s120.13,20.91,120.13,46.62S266.24,256.27,200,256.27ZM200,164c-65.69,0-119.13,20.46-119.13,45.62S134.31,255.27,200,255.27s119.13-20.47,119.13-45.62S265.69,164,200,164Z" fill="#231f20"></path><polygon points="173.22 168.4 220.34 186.97 141.72 215.69 99.03 192.62 173.22 168.4" fill="#fff"></polygon><path d="M141.72,216.19a.53.53,0,0,1-.24-.06L98.79,193.06a.5.5,0,0,1,.08-.91l74.19-24.22a.45.45,0,0,1,.34,0l47.13,18.57a.5.5,0,0,1,.32.47.51.51,0,0,1-.33.46l-78.63,28.72A.47.47,0,0,1,141.72,216.19Zm-41.43-23.45,41.47,22.4L218.94,187l-45.74-18Z" fill="#d1d3d4"></path><polygon points="180.68 167.9 227.8 186.47 149.18 215.18 106.48 192.12 180.68 167.9" fill="#fff"></polygon><path d="M149.18,215.68a.5.5,0,0,1-.24-.06l-42.69-23.06a.53.53,0,0,1-.27-.49.51.51,0,0,1,.35-.43l74.19-24.22a.5.5,0,0,1,.34,0L228,186a.51.51,0,0,1,.31.47.51.51,0,0,1-.33.47l-78.62,28.71A.51.51,0,0,1,149.18,215.68Zm-41.43-23.45,41.47,22.41,77.17-28.19-45.73-18Z" fill="#d1d3d4"></path><polygon points="188.4 168.84 235.53 187.42 156.9 216.13 114.21 193.06 188.4 168.84" fill="#fff"></polygon><path d="M156.9,216.63a.46.46,0,0,1-.23-.06L114,193.5a.48.48,0,0,1-.26-.48.5.5,0,0,1,.34-.43l74.19-24.22a.5.5,0,0,1,.34,0L235.71,187a.51.51,0,0,1,.32.47.54.54,0,0,1-.33.47L157.07,216.6A.47.47,0,0,1,156.9,216.63Zm-41.43-23.45,41.47,22.41,77.18-28.19-45.74-18Z" fill="#231f20"></path><path d="M148.19,206.06a.48.48,0,0,1-.46-.32.5.5,0,0,1,.29-.65l62.08-23.67a.51.51,0,0,1,.64.29.5.5,0,0,1-.29.65L148.37,206A.57.57,0,0,1,148.19,206.06Z" fill="#d1d3d4"></path><path d="M211.11,191.11a.48.48,0,0,1-.2,0l-33-14.21a.5.5,0,0,1,.4-.92l33,14.22a.49.49,0,0,1,.26.65A.5.5,0,0,1,211.11,191.11Z" fill="#d1d3d4"></path><path d="M200.59,195.36c-.53,0-3.47-1.44-33.67-16.75a.5.5,0,0,1,.45-.9c8.88,4.51,32,16.23,33.22,16.7a.49.49,0,0,1,.31.24.51.51,0,0,1-.19.68A.19.19,0,0,1,200.59,195.36Z" fill="#d1d3d4"></path><path d="M186.4,200.73a.44.44,0,0,1-.22,0l-33.4-16.37a.51.51,0,0,1-.23-.67.5.5,0,0,1,.67-.23l33.4,16.38a.49.49,0,0,1-.22.94Z" fill="#d1d3d4"></path><path d="M158.46,211.35a.43.43,0,0,1-.22-.06L123.7,193.51a.5.5,0,0,1-.27-.49.48.48,0,0,1,.34-.43l63.86-20.23a.5.5,0,0,1,.34,0l34.34,13.83a.5.5,0,0,1,0,.93l-63.66,24.18A.39.39,0,0,1,158.46,211.35Zm-33.23-18.17,33.26,17.12,62.26-23.65-33-13.28Z" fill="#d1d3d4"></path><path d="M199.59,93.64l.66,17.26s1.47,6.37,12.76,3.84a15.36,15.36,0,0,0,12-12.14c-1.1-6-2.88-35-4-42.52l-7.13,1.28a43.91,43.91,0,0,0-1.59-9.87,21.34,21.34,0,0,0-2.06,8.07l-13,1.37a1.27,1.27,0,0,1-.82-.09,1.31,1.31,0,0,1-.44-.72l-1.14-3.42-.93,4.1a1.59,1.59,0,0,1-1.8,1.61l-5.19.31a4.18,4.18,0,0,0-2.15.52c-1.93,1.32-1,9.12-.78,11.24A41.84,41.84,0,0,0,186.89,87C190.31,95.13,199.59,93.64,199.59,93.64Z" fill="#fff"></path><path d="M208.14,115.84a10.1,10.1,0,0,1-6-1.67,6,6,0,0,1-2.35-3.16l-.65-16.82c-2.11.17-9.65.22-12.68-7a42.07,42.07,0,0,1-3-12.67l-.07-.76c-.49-5-.69-9.75,1.06-10.94a4.61,4.61,0,0,1,2.4-.61l5.19-.31a1.68,1.68,0,0,0,.89-.2,1.73,1.73,0,0,0,.45-1l.93-4.1a.5.5,0,0,1,.46-.39.48.48,0,0,1,.5.34L196.43,60c.06.15.13.39.24.45a1,1,0,0,0,.5,0l12.54-1.33a21.82,21.82,0,0,1,2.08-7.84.47.47,0,0,1,.49-.28.5.5,0,0,1,.44.36,44.82,44.82,0,0,1,1.58,9.41l6.57-1.17a.48.48,0,0,1,.38.08.5.5,0,0,1,.2.33c.56,3.68,1.28,12.51,2,21.06.74,9,1.5,18.4,2.06,21.45a15.77,15.77,0,0,1-12.37,12.72A22.8,22.8,0,0,1,208.14,115.84Zm-8.55-22.7a.52.52,0,0,1,.32.11.51.51,0,0,1,.18.37l.66,17.26c.05.14,1.53,5.75,12.15,3.37a14.75,14.75,0,0,0,11.6-11.64c-.58-3.16-1.3-12.06-2.07-21.47-.66-8.16-1.35-16.57-1.89-20.48l-6.62,1.19a.5.5,0,0,1-.59-.47A43.21,43.21,0,0,0,212.12,53a21.1,21.1,0,0,0-1.44,6.58.52.52,0,0,1-.45.48l-13,1.37a1.73,1.73,0,0,1-1.14-.17,1.79,1.79,0,0,1-.65-1l-.57-1.71-.53,2.35a2.08,2.08,0,0,1-2.26,2l-5.19.31a3.79,3.79,0,0,0-1.9.43c-1.5,1-.85,7.8-.63,10l.07.76a41.29,41.29,0,0,0,2.88,12.37c3.22,7.66,11.8,6.39,12.16,6.33Z" fill="#231f20"></path><path d="M199.94,102.71a12.1,12.1,0,0,0,9.72-5.77c3.66-5.83,2.32-9.62,2.32-9.62s-4.88,6-12.39,6.32Z" fill="#231f20"></path><path d="M200,103.21h0a.5.5,0,0,1-.49-.48l-.35-9.07a.5.5,0,0,1,.48-.52c7.18-.33,12-6.08,12-6.14a.51.51,0,0,1,.86.15c.06.17,1.38,4.09-2.36,10A12.55,12.55,0,0,1,200,103.21Zm.16-9.1.31,8.07a11.77,11.77,0,0,0,8.82-5.51c2.45-3.9,2.57-6.86,2.43-8.27A18.94,18.94,0,0,1,200.11,94.11Z" fill="#231f20"></path><path d="M198.24,68.27s-1.71,9,0,10.18,4.71-1.07,4.71-1.07" fill="#fff"></path><path d="M199.4,79.3a2.47,2.47,0,0,1-1.48-.44c-1.85-1.33-.46-9.14-.17-10.69a.51.51,0,0,1,.59-.4.5.5,0,0,1,.39.59c-.79,4.17-1.11,9.06-.23,9.68,1.14.82,3.36-.49,4.12-1.06a.5.5,0,0,1,.7.1.51.51,0,0,1-.1.7A7.62,7.62,0,0,1,199.4,79.3Z" fill="#231f20"></path><ellipse cx="205.6" cy="70.16" rx="1.45" ry="2.05" transform="matrix(0.99, -0.17, 0.17, 0.99, -9.01, 36.45)" fill="#231f20"></ellipse><ellipse cx="190.5" cy="71.94" rx="1.45" ry="2.05" transform="matrix(0.99, -0.17, 0.17, 0.99, -9.54, 33.88)" fill="#231f20"></ellipse><path d="M204.46,73.76a3.46,3.46,0,0,1-3.42-3l-.65-5.15a.5.5,0,0,1,.44-.56l13.62-1.71a.49.49,0,0,1,.56.43l.65,5.15a3.37,3.37,0,0,1-.7,2.54,3.41,3.41,0,0,1-2.29,1.31l-7.78,1h0Zm.37-.53ZM201.45,66l.58,4.66a2.47,2.47,0,0,0,2.73,2.12l7.79-1A2.46,2.46,0,0,0,214.67,69l-.59-4.66Z" fill="#231f20"></path><path d="M184.78,76.43a3.46,3.46,0,0,1-3.42-3l-.65-5.15a.5.5,0,0,1,.43-.56L194.77,66a.5.5,0,0,1,.56.44l.65,5.15a3.37,3.37,0,0,1-.7,2.54A3.41,3.41,0,0,1,193,75.42l-7.78,1Zm-3-7.8.58,4.66a2.44,2.44,0,0,0,2.73,2.12h0l7.79-1A2.46,2.46,0,0,0,195,71.7L194.4,67Z" fill="#231f20"></path><path d="M224.61,68.77h0l-9.65-.86a.51.51,0,0,1-.45-.55.5.5,0,0,1,.54-.45l9.65.87a.49.49,0,0,1,.45.54A.5.5,0,0,1,224.61,68.77Z" fill="#231f20"></path><path d="M217.24,73.8a4.44,4.44,0,0,1,.76-2.61,12.38,12.38,0,0,1,2.68-3.41,6.28,6.28,0,0,1,4-1.56c2.85,0,5.25,2.71,5.43,5.55a8.26,8.26,0,0,1-3.93,7.15,7.36,7.36,0,0,1-6.55,1" fill="#fff"></path><path d="M221.79,80.79a6.51,6.51,0,0,1-2.37-.43.5.5,0,0,1,.37-.93,6.85,6.85,0,0,0,6.1-.93,7.75,7.75,0,0,0,3.7-6.7,5.44,5.44,0,0,0-4.94-5.08h0A5.75,5.75,0,0,0,221,68.16a11.51,11.51,0,0,0-2.56,3.28,3.9,3.9,0,0,0-.7,2.3.51.51,0,0,1-.44.56.51.51,0,0,1-.56-.44,4.9,4.9,0,0,1,.83-2.92,12.39,12.39,0,0,1,2.79-3.54,6.82,6.82,0,0,1,4.3-1.68,6.4,6.4,0,0,1,5.93,6,8.72,8.72,0,0,1-4.16,7.59A8.59,8.59,0,0,1,221.79,80.79Z" fill="#231f20"></path><path d="M195.25,68.77a.5.5,0,0,1-.32-.88,4.68,4.68,0,0,1,6.67,0,.5.5,0,0,1-.73.68,3.67,3.67,0,0,0-5.29,0A.5.5,0,0,1,195.25,68.77Z" fill="#231f20"></path><path d="M194.15,85.86a.5.5,0,0,1-.5-.5.51.51,0,0,1,.5-.5c.1,0,10.24-.07,15.77-5.83a.49.49,0,0,1,.7,0,.5.5,0,0,1,0,.71C204.81,85.79,194.59,85.86,194.15,85.86Z" fill="#231f20"></path><polygon points="189.04 240.53 236.85 219.86 198.65 205.9 169.1 218.09 145.54 218.88 189.04 240.53" fill="#fff"></polygon><path d="M189,241a.46.46,0,0,1-.23-.06l-43.49-21.65a.5.5,0,0,1-.26-.55.49.49,0,0,1,.47-.39l23.46-.79,29.47-12.15a.5.5,0,0,1,.36,0l38.21,14a.5.5,0,0,1,0,.93L189.24,241A.53.53,0,0,1,189,241Zm-41.5-21.72L189.05,240,235.5,219.9l-36.84-13.47-29.37,12.12a.39.39,0,0,1-.18,0Z" fill="#231f20"></path><polygon points="236.85 219.86 237.34 224.7 188.4 246.35 187.33 235.64 203.25 234.38 236.85 219.86" fill="#fff"></polygon><path d="M188.4,246.85a.55.55,0,0,1-.25-.07.51.51,0,0,1-.25-.38l-1.07-10.71a.54.54,0,0,1,.11-.37.52.52,0,0,1,.35-.18l15.83-1.25,33.54-14.49a.51.51,0,0,1,.45,0,.52.52,0,0,1,.24.38l.48,4.84a.47.47,0,0,1-.29.5L188.6,246.8A.46.46,0,0,1,188.4,246.85Zm-.52-10.75,1,9.51,48-21.22-.38-3.8-33,14.25a.28.28,0,0,1-.15,0Z" fill="#231f20"></path><polygon points="188.4 246.35 146.46 228.03 145.54 218.88 187.33 235.64 188.4 246.35" fill="#fff"></polygon><path d="M188.4,246.85a.46.46,0,0,1-.2,0l-41.94-18.31a.5.5,0,0,1-.29-.41l-.92-9.15a.51.51,0,0,1,.68-.52l41.78,16.77a.47.47,0,0,1,.31.41l1.08,10.71a.48.48,0,0,1-.21.45A.51.51,0,0,1,188.4,246.85Zm-41.47-19.16,40.89,17.86-1-9.56-40.73-16.34Z" fill="#231f20"></path><path d="M187,233.2a.63.63,0,0,1-.19,0L159.5,222a.5.5,0,0,1,.14-1l11.57-1.16a.67.67,0,0,1,.24,0l26.94,11.25a.5.5,0,0,1,.3.54.49.49,0,0,1-.44.42l-11.17,1.12Zm-25.3-11.41,25.38,10.4,9.07-.91-25-10.44Z" fill="#d1d3d4"></path><path d="M204.24,230.89h-.06c-.36-.08-19.86-8.21-28.23-11.71a.5.5,0,0,1-.31-.46.53.53,0,0,1,.31-.46l23.23-9.56a.5.5,0,0,1,.38,0l28.37,11.24a.5.5,0,0,1,0,.93C206.32,230.29,204.54,230.89,204.24,230.89Zm-26.79-12.17c9.35,3.9,25.25,10.52,26.87,11.15,1.43-.48,13.49-5.68,22.13-9.45l-27.07-10.73Z" fill="#d1d3d4"></path><path d="M212,227.25a.43.43,0,0,1-.19,0L183.92,215.9a.5.5,0,0,1,.38-.93l27.88,11.32a.49.49,0,0,1,.27.65A.5.5,0,0,1,212,227.25Z" fill="#d1d3d4"></path><path d="M221.06,223.29a.54.54,0,0,1-.21,0c-.53-.24-18.45-7.35-27.85-11.08a.5.5,0,0,1-.28-.64.51.51,0,0,1,.65-.29c1.12.45,27.33,10.83,27.91,11.11a.5.5,0,0,1-.22.95Z" fill="#d1d3d4"></path><path d="M182.46,221.85a.52.52,0,0,1-.47-.32.5.5,0,0,1,.29-.65l24.14-9.33a.5.5,0,0,1,.65.29.49.49,0,0,1-.29.64l-24.14,9.33A.39.39,0,0,1,182.46,221.85Z" fill="#d1d3d4"></path><path d="M193.74,226.55a.5.5,0,0,1-.46-.32.51.51,0,0,1,.28-.65c9.2-3.54,23.13-9,24.27-9.77a.49.49,0,0,1,.38-.18h0a.5.5,0,0,1,.5.5c0,.45,0,.83-24.79,10.38A.39.39,0,0,1,193.74,226.55Zm24.43-10.36h0Z" fill="#d1d3d4"></path><path d="M246.07,199.51c-.18.52-16,5.61-16,5.61s-10.87-4.92-17.64-4.05c-7.61,1-14.54,2.92-20.17,8.47-.46.46-.94,1.07-.74,1.68s1.06.83,1.74.77c3.44-.27,6-3.44,9.38-4.16a29.14,29.14,0,0,0-5.1,3.24,9.72,9.72,0,0,0-3.28,5,1.47,1.47,0,0,0,.05,1.13c.32.56,1.1.58,1.73.44,3.21-.7,5.45-3.54,8.3-5.18a25.62,25.62,0,0,0-4.54,4.09,8.83,8.83,0,0,0-2.17,5.6c0,.76.51,1.74,1.24,1.52a1.39,1.39,0,0,0,.5-.34,67,67,0,0,0,6.47-7,9.46,9.46,0,0,0-1.36,5.89,4.7,4.7,0,0,0,1.81,3.54c1.14.75,3,.44,3.47-.84a7.62,7.62,0,0,0,.1-2.34c.18-3.18,5-4.59,7.6-4.24,4.4.59,14.35,2.83,16.78,2.93S256,212.41,256,212.41" fill="#fff"></path><path d="M207.67,226.62a3.11,3.11,0,0,1-1.69-.48,5.25,5.25,0,0,1-2-3.91,10.08,10.08,0,0,1,.19-3.19c-1.41,1.61-2.91,3.15-4.47,4.61a1.68,1.68,0,0,1-.7.46,1.17,1.17,0,0,1-1-.18,2.43,2.43,0,0,1-.83-1.81,9,9,0,0,1,1.67-5.11,9.07,9.07,0,0,1-2.65,1.08,1.72,1.72,0,0,1-2.38-2.18,9.54,9.54,0,0,1,2.44-4.27,8.09,8.09,0,0,1-2.91.85,2.05,2.05,0,0,1-2.25-1.11c-.34-1,.56-1.9.85-2.19,6.16-6.07,13.8-7.76,20.46-8.61,6.45-.83,16.25,3.35,17.74,4,5.69-1.83,14.73-4.84,15.62-5.41a.51.51,0,0,1,.54-.14.49.49,0,0,1,.31.63c-.09.28-.25.76-16.34,5.93a.5.5,0,0,1-.36,0c-.11-.05-10.83-4.86-17.38-4s-13.94,2.47-19.88,8.33c-.5.49-.71.88-.62,1.16s.72.47,1.24.43a11,11,0,0,0,4.82-2.05,14.53,14.53,0,0,1,4.49-2.1.5.5,0,0,1,.34.93,28.11,28.11,0,0,0-5,3.18,9.3,9.3,0,0,0-3.13,4.69,1.13,1.13,0,0,0,0,.77c.17.3.75.3,1.19.2,1.93-.42,3.49-1.66,5.15-3a24.87,24.87,0,0,1,3-2.15.48.48,0,0,1,.66.15.5.5,0,0,1-.11.68,24.92,24.92,0,0,0-4.45,4,8.29,8.29,0,0,0-2.06,5.27,1.46,1.46,0,0,0,.42,1,.16.16,0,0,0,.17,0,.85.85,0,0,0,.31-.23,64.84,64.84,0,0,0,6.42-6.94.5.5,0,0,1,.82.58,8.86,8.86,0,0,0-1.29,5.57,4.3,4.3,0,0,0,1.58,3.17,2.2,2.2,0,0,0,1.81.22,1.44,1.44,0,0,0,.93-.82,3.29,3.29,0,0,0,.08-1.31c0-.29,0-.59,0-.88a4,4,0,0,1,1.58-2.89,9.52,9.52,0,0,1,6.59-1.82c2,.28,5.17.89,8.23,1.48,3.54.69,7.21,1.4,8.5,1.45h0c1.81,0,13.82-5.23,21.49-8.77a.5.5,0,0,1,.67.24.52.52,0,0,1-.25.67c-2,.91-19.47,8.91-22,8.86-1.37-.06-4.9-.74-8.65-1.47-3-.59-6.19-1.2-8.18-1.46a8.48,8.48,0,0,0-5.81,1.59,3,3,0,0,0-1.22,2.18c0,.25,0,.5,0,.76a4,4,0,0,1-.15,1.73,2.41,2.41,0,0,1-1.54,1.41A3.35,3.35,0,0,1,207.67,226.62Z" fill="#231f20"></path><path d="M265.75,103.63S314,165.5,299.19,183.86,240,219.67,240,219.67l-11-20.35s42.44-20.44,43.37-24.54l-31.2-36.66S248.63,100.48,265.75,103.63Z" fill="#5bc795"></path><line x1="271.96" y1="173.55" x2="248.24" y2="146.41" fill="#fff"></line><path d="M272,174.05a.48.48,0,0,1-.38-.17l-23.72-27.14a.5.5,0,0,1,.76-.66l23.71,27.15a.5.5,0,0,1,0,.7A.54.54,0,0,1,272,174.05Z" fill="#231f20"></path><path d="M210.28,157.83a.48.48,0,0,1-.36-.15c-.13-.12-12.17-12.54-14.58-15.29s2.43-8.7,3.93-10.44c-1.64-1.24-7.34-5.56-8.08-6.17-.35-.28-1.17-1,6.62-15.83a.5.5,0,0,1,.68-.21.5.5,0,0,1,.21.67c-3.32,6.35-6.69,13.44-6.76,14.69,1.26,1,8.29,6.32,8.36,6.38a.49.49,0,0,1,.07.73c-1.78,2-6,7.52-4.27,9.52,2.39,2.74,14.41,15.13,14.53,15.25a.5.5,0,0,1,0,.71A.45.45,0,0,1,210.28,157.83Zm-18.34-32.64h0Z" fill="#231f20"></path><path d="M230.15,156.44a.53.53,0,0,1-.3-.09.51.51,0,0,1-.11-.7c3.95-5.37,14.19-19.94,14.19-22.85s-7.82-7.3-10.83-8.81a.49.49,0,0,1-.28-.44.51.51,0,0,1,.26-.44c.1-.06,10.12-5.54,12.34-8.37a.4.4,0,0,0,.07-.38c-.53-2.47-10.2-8.37-18.32-12.67l-.1-.06a.5.5,0,0,1-.21-.68.51.51,0,0,1,.68-.2l.1,0c5.42,2.87,18.1,9.92,18.82,13.36a1.4,1.4,0,0,1-.25,1.2c-2,2.52-9.34,6.77-11.83,8.17,2.75,1.45,10.55,5.87,10.55,9.27,0,3.76-12.91,21.44-14.38,23.44A.51.51,0,0,1,230.15,156.44Z" fill="#231f20"></path><polygon points="186.4 189.46 182.6 190.62 173.98 160.1 177.78 158.95 186.4 189.46" fill="#fff"></polygon><path d="M182.6,191.11a.5.5,0,0,1-.24-.06.48.48,0,0,1-.24-.3l-8.62-30.52a.5.5,0,0,1,.34-.61l3.8-1.15a.5.5,0,0,1,.62.34l8.62,30.52a.49.49,0,0,1-.33.61l-3.81,1.15A.32.32,0,0,1,182.6,191.11Zm-8-30.67L182.94,190l2.85-.86-8.35-29.56Z" fill="#231f20"></path><polygon points="186.4 189.46 182.6 190.62 186.37 196.67 186.4 189.46" fill="#fff"></polygon><path d="M186.37,197.17a.49.49,0,0,1-.42-.24l-3.78-6.05a.52.52,0,0,1,0-.44.49.49,0,0,1,.33-.3l3.8-1.16a.53.53,0,0,1,.44.08.51.51,0,0,1,.2.4l0,7.21a.5.5,0,0,1-.36.48Zm-3-6.27,2.51,4,0-4.79Z" fill="#231f20"></path><path d="M157.26,172.09s-12.2,2.69-14.73,9.22c0,0,19.49,9.22,22.74,10s23.59-.42,23.66-4-1.35-8.27-2.84-9.65-8-1.22-8-1.22a13,13,0,0,0-1-3.78C174.48,172.78,164.76,175,157.26,172.09Z" fill="#fff"></path><path d="M168.79,192a18.91,18.91,0,0,1-3.64-.24c-3.26-.79-22-9.66-22.83-10a.5.5,0,0,1-.25-.64c2.59-6.71,14.58-9.42,15.09-9.53a.58.58,0,0,1,.29,0c6,2.34,13.47,1.31,17.49.76.93-.13,1.67-.23,2.18-.26a.49.49,0,0,1,.48.28,12.68,12.68,0,0,1,1,3.49c1.61,0,6.46.06,7.86,1.36,1.64,1.52,3.06,6.3,3,10a1.93,1.93,0,0,1-.89,1.48C185.68,191,174.84,192,168.79,192Zm-25.61-11c2.9,1.36,19.31,9.06,22.2,9.75s19.16-.23,22.55-2.86c.33-.25.49-.48.5-.7.06-3.7-1.41-8.1-2.68-9.28-1-.9-5.17-1.14-7.61-1.08a.49.49,0,0,1-.51-.45,13.05,13.05,0,0,0-.79-3.31l-1.76.23c-4.08.56-11.64,1.6-17.85-.76C155.9,172.93,145.78,175.52,143.18,181.07Z" fill="#231f20"></path><line x1="174.98" y1="163.41" x2="178.69" y2="161.96" fill="#fff"></line><path d="M175,163.91a.51.51,0,0,1-.47-.32.5.5,0,0,1,.29-.64l3.71-1.46a.5.5,0,0,1,.65.29.5.5,0,0,1-.29.64l-3.71,1.46A.57.57,0,0,1,175,163.91Z" fill="#231f20"></path><line x1="183.5" y1="192.06" x2="186.39" y2="191.53" fill="#fff"></line><path d="M183.5,192.56a.5.5,0,0,1-.09-1l2.89-.53a.49.49,0,0,1,.58.4.5.5,0,0,1-.4.58l-2.89.53Z" fill="#231f20"></path><path d="M180.5,100.4s-87.41,62-77.23,71.69,51.14,17.37,51.14,17.37l9.35-18-20-9.93c5.73-3.7,36.73-23.64,36.73-23.64Z" fill="#5bc795"></path><line x1="177.73" y1="154.01" x2="173.27" y2="118.57" fill="#fff"></line><path d="M177.73,154.51a.5.5,0,0,1-.49-.44l-4.47-35.44a.51.51,0,0,1,.44-.56.5.5,0,0,1,.55.44l4.47,35.43a.5.5,0,0,1-.43.56Z" fill="#231f20"></path><path d="M172.38,206.06a.59.59,0,0,1-.22-.05l-33.83-17.13a.49.49,0,0,1-.22-.67.5.5,0,0,1,.67-.23l33.83,17.13a.5.5,0,0,1-.23.95Z" fill="#d1d3d4"></path><polygon points="270.4 219.19 239.97 233.1 262.46 243.42 293.12 228.15 270.4 219.19" fill="#fff"></polygon><path d="M262.46,243.92a.54.54,0,0,1-.21,0l-22.48-10.31a.5.5,0,0,1,0-.91l30.42-13.92a.51.51,0,0,1,.4,0l22.72,9a.49.49,0,0,1,.31.44.5.5,0,0,1-.27.47l-30.67,15.28A.54.54,0,0,1,262.46,243.92ZM241.18,233.1l21.27,9.76L291.9,228.2l-21.48-8.47Z" fill="#d1d3d4"></path><polygon points="261.34 220.49 230.92 234.41 253.4 244.73 284.06 229.46 261.34 220.49" fill="#fff"></polygon><path d="M253.4,245.23a.54.54,0,0,1-.21,0l-22.48-10.31a.5.5,0,0,1,0-.91L261.13,220a.51.51,0,0,1,.4,0l22.72,9a.49.49,0,0,1,.31.44.5.5,0,0,1-.27.47l-30.67,15.28A.54.54,0,0,1,253.4,245.23Zm-21.28-10.82,21.27,9.76,29.45-14.66L261.36,221Z" fill="#d1d3d4"></path><line x1="240.67" y1="233.1" x2="255.2" y2="239.66" fill="#fff"></line><path d="M255.2,240.16a.54.54,0,0,1-.21,0l-14.53-6.55a.5.5,0,0,1-.25-.66.51.51,0,0,1,.67-.25l14.52,6.55a.51.51,0,0,1,.25.66A.49.49,0,0,1,255.2,240.16Z" fill="#d1d3d4"></path><line x1="246.05" y1="230.4" x2="260.58" y2="236.95" fill="#fff"></line><path d="M260.58,237.45a.45.45,0,0,1-.2,0l-14.53-6.56a.5.5,0,0,1,.41-.91l14.53,6.56a.5.5,0,0,1,.25.66A.52.52,0,0,1,260.58,237.45Z" fill="#d1d3d4"></path><line x1="251.32" y1="228.02" x2="265.85" y2="234.58" fill="#fff"></line><path d="M265.85,235.08a.54.54,0,0,1-.21-.05l-14.52-6.55a.49.49,0,0,1-.25-.66.5.5,0,0,1,.66-.25l14.53,6.55a.5.5,0,0,1-.21,1Z" fill="#d1d3d4"></path><line x1="256.94" y1="224.75" x2="271.47" y2="231.3" fill="#fff"></line><path d="M271.47,231.8a.52.52,0,0,1-.21,0l-14.53-6.56a.5.5,0,0,1-.25-.66.51.51,0,0,1,.67-.25l14.52,6.56a.5.5,0,0,1-.2,1Z" fill="#d1d3d4"></path></g></svg>