<svg xmlns="http://www.w3.org/2000/svg" xmlns:xlink="http://www.w3.org/1999/xlink" id="svg" version="1.1" width="400" height="400" viewBox="0, 0, 400,400"><g id="svgg"><path id="path0" d="M338.000 48.835 C 334.590 50.786,331.575 52.386,331.300 52.391 C 331.025 52.396,330.800 52.552,330.800 52.737 C 330.800 52.923,329.945 53.508,328.900 54.037 C 327.855 54.567,326.940 55.135,326.867 55.300 C 326.793 55.465,326.576 55.600,326.384 55.600 C 326.192 55.600,325.082 56.165,323.918 56.856 C 321.662 58.193,320.116 59.086,317.700 60.443 C 316.875 60.906,316.020 61.420,315.800 61.585 C 315.580 61.750,314.410 62.425,313.200 63.084 C 309.218 65.255,307.006 66.503,306.600 66.806 C 306.222 67.089,304.047 68.287,300.000 70.442 C 299.010 70.969,298.110 71.490,298.000 71.600 C 297.890 71.710,297.395 72.025,296.900 72.300 C 296.405 72.575,295.595 73.025,295.100 73.300 C 294.605 73.575,294.110 73.890,294.000 74.000 C 293.757 74.243,292.343 75.063,290.200 76.203 C 286.334 78.260,284.846 79.600,286.428 79.600 C 286.663 79.600,287.608 80.117,288.528 80.749 C 290.188 81.890,296.639 85.858,299.066 87.232 C 301.749 88.750,303.190 89.819,303.195 90.294 C 303.200 90.791,300.254 95.977,297.743 99.894 C 297.004 101.045,296.400 102.098,296.400 102.232 C 296.400 102.367,296.061 102.954,295.647 103.538 C 295.233 104.122,294.513 105.275,294.047 106.100 C 293.581 106.925,292.819 108.275,292.353 109.100 C 291.887 109.925,291.167 111.078,290.753 111.662 C 290.339 112.246,290.000 112.848,290.000 113.000 C 290.000 113.152,289.661 113.754,289.247 114.338 C 288.833 114.922,288.081 116.120,287.576 117.000 C 287.071 117.880,286.143 119.500,285.514 120.600 C 284.885 121.700,284.201 122.870,283.994 123.200 C 283.381 124.175,279.175 131.281,278.311 132.800 C 277.873 133.570,277.373 134.380,277.200 134.600 C 277.027 134.820,276.523 135.650,276.080 136.445 C 274.469 139.338,274.196 139.804,274.000 140.000 C 273.604 140.396,272.346 142.615,272.129 143.300 C 272.007 143.685,271.748 144.000,271.553 144.000 C 271.359 144.000,271.200 144.236,271.200 144.525 C 271.200 144.813,270.840 145.436,270.400 145.908 C 269.960 146.380,269.600 147.044,269.600 147.383 C 269.600 147.722,269.441 148.000,269.247 148.000 C 269.052 148.000,268.792 148.315,268.669 148.700 C 268.408 149.512,267.235 151.565,263.264 158.153 C 261.689 160.767,260.400 162.989,260.400 163.091 C 260.400 163.193,260.061 163.754,259.647 164.338 C 258.896 165.397,257.809 167.249,256.259 170.110 C 255.809 170.940,255.117 171.968,254.721 172.393 C 254.324 172.819,254.000 173.444,254.000 173.783 C 254.000 174.122,253.841 174.400,253.647 174.400 C 253.452 174.400,253.187 174.715,253.058 175.100 C 252.928 175.485,252.500 176.340,252.106 177.000 C 242.334 193.376,242.447 193.200,241.669 193.200 C 241.211 193.200,237.200 191.121,235.668 190.090 C 235.081 189.695,234.060 189.108,233.400 188.786 C 232.740 188.465,232.110 188.111,232.000 188.000 C 231.890 187.889,231.262 187.529,230.605 187.199 C 229.948 186.870,228.286 185.925,226.912 185.100 C 225.538 184.275,224.318 183.600,224.199 183.600 C 224.081 183.600,223.313 183.180,222.492 182.667 C 221.671 182.154,220.010 181.190,218.800 180.524 C 215.141 178.512,213.407 177.443,213.267 177.113 C 213.193 176.941,212.788 176.800,212.367 176.800 C 211.945 176.800,211.600 176.664,211.600 176.498 C 211.600 176.331,211.015 175.943,210.300 175.635 C 209.585 175.327,208.519 174.740,207.932 174.332 C 207.344 173.924,205.904 173.080,204.732 172.457 C 202.440 171.239,201.185 170.526,197.333 168.255 C 195.976 167.455,194.730 166.800,194.564 166.800 C 194.399 166.800,193.979 166.549,193.631 166.241 C 193.284 165.934,191.830 165.061,190.400 164.301 C 188.970 163.542,187.150 162.550,186.355 162.098 C 185.560 161.645,184.480 161.033,183.955 160.738 C 183.430 160.442,182.910 160.101,182.800 159.979 C 182.690 159.858,181.933 159.448,181.119 159.069 C 180.304 158.690,179.404 158.160,179.119 157.890 C 178.833 157.621,177.520 156.840,176.200 156.156 C 174.880 155.472,172.360 154.078,170.600 153.059 C 168.840 152.040,167.292 151.205,167.160 151.203 C 166.860 151.199,164.809 154.498,163.876 156.483 C 163.492 157.299,163.008 158.071,162.800 158.200 C 162.592 158.329,162.114 159.101,161.737 159.917 C 161.361 160.733,160.586 162.120,160.014 163.000 C 159.443 163.880,158.711 165.140,158.388 165.800 C 158.065 166.460,157.711 167.090,157.600 167.200 C 157.489 167.310,157.135 167.940,156.812 168.600 C 156.489 169.260,155.724 170.552,155.112 171.472 C 154.501 172.392,154.000 173.243,154.000 173.364 C 154.000 173.485,153.370 174.569,152.600 175.773 C 151.830 176.977,151.200 178.057,151.200 178.174 C 151.200 178.290,150.480 179.562,149.600 181.000 C 148.720 182.438,148.000 183.688,148.000 183.778 C 148.000 183.868,147.139 185.349,146.087 187.071 C 145.034 188.792,143.859 190.867,143.476 191.683 C 143.092 192.499,142.608 193.271,142.400 193.400 C 142.192 193.529,141.706 194.301,141.321 195.117 C 140.936 195.933,139.911 197.770,139.044 199.200 C 138.176 200.630,136.931 202.790,136.277 204.000 C 135.623 205.210,134.880 206.470,134.627 206.800 C 134.373 207.130,133.911 207.940,133.600 208.600 C 133.289 209.260,132.782 210.106,132.472 210.481 C 132.163 210.855,131.511 211.935,131.023 212.881 C 129.874 215.105,128.481 217.540,127.635 218.800 C 127.266 219.350,126.539 220.655,126.019 221.700 C 125.500 222.745,124.966 223.600,124.835 223.600 C 124.703 223.600,124.342 224.185,124.032 224.900 C 123.723 225.615,122.959 226.952,122.335 227.872 C 121.711 228.792,121.200 229.642,121.200 229.761 C 121.200 229.880,120.362 231.377,119.337 233.088 C 118.312 234.800,117.092 236.920,116.624 237.800 C 116.157 238.680,115.286 240.161,114.688 241.092 C 114.089 242.023,113.600 242.881,113.600 242.999 C 113.600 243.118,112.880 244.400,112.000 245.848 C 111.120 247.297,110.400 248.643,110.400 248.841 C 110.400 249.038,110.264 249.200,110.098 249.200 C 109.931 249.200,109.542 249.785,109.232 250.500 C 108.923 251.215,108.159 252.552,107.535 253.472 C 106.911 254.392,106.400 255.259,106.400 255.400 C 106.400 255.541,105.860 256.441,105.200 257.400 C 104.540 258.359,104.000 259.231,104.000 259.337 C 104.000 259.444,102.470 262.167,100.600 265.388 C 98.730 268.610,97.200 271.416,97.200 271.623 C 97.200 271.830,97.064 272.000,96.898 272.000 C 96.731 272.000,96.343 272.585,96.035 273.300 C 95.727 274.015,95.164 275.050,94.784 275.600 C 94.404 276.150,93.713 277.275,93.247 278.100 C 91.907 280.473,91.088 281.893,88.254 286.752 C 86.794 289.255,85.600 291.401,85.600 291.520 C 85.600 291.640,85.356 292.021,85.058 292.369 C 84.759 292.716,83.886 294.170,83.118 295.600 C 81.461 298.682,79.921 301.321,79.618 301.600 C 79.498 301.710,79.026 302.520,78.570 303.400 C 77.496 305.469,76.652 306.948,76.400 307.200 C 76.290 307.310,75.958 307.830,75.662 308.355 C 74.284 310.803,73.621 311.953,72.456 313.918 C 71.765 315.082,71.200 316.114,71.200 316.210 C 71.200 316.306,70.570 317.369,69.800 318.573 C 69.030 319.777,68.400 320.863,68.400 320.988 C 68.400 321.112,67.622 322.516,66.670 324.107 C 65.719 325.698,64.430 327.900,63.805 329.000 C 63.180 330.100,62.564 331.090,62.435 331.200 C 62.306 331.310,61.826 332.120,61.370 333.000 C 60.296 335.069,59.452 336.548,59.200 336.800 C 58.949 337.051,58.104 338.530,57.030 340.600 C 56.574 341.479,55.885 342.548,55.500 342.975 C 55.115 343.402,54.800 343.987,54.800 344.275 C 54.800 344.564,54.620 344.800,54.400 344.800 C 54.180 344.800,54.000 345.160,54.000 345.600 C 54.000 346.040,53.820 346.400,53.600 346.400 C 53.380 346.400,53.200 346.565,53.200 346.767 C 53.200 347.076,51.218 350.679,47.955 356.300 C 47.540 357.015,46.819 358.275,46.353 359.100 C 45.887 359.925,45.167 361.078,44.753 361.662 C 44.339 362.246,44.000 362.848,44.000 363.000 C 44.000 363.152,43.661 363.754,43.247 364.338 C 42.833 364.922,42.113 366.075,41.647 366.900 C 41.181 367.725,40.419 369.075,39.953 369.900 C 39.487 370.725,38.796 371.850,38.416 372.400 C 38.036 372.950,37.473 373.985,37.165 374.700 C 36.857 375.415,36.469 376.000,36.302 376.000 C 36.136 376.000,36.000 376.198,36.000 376.440 C 36.000 376.681,35.031 378.526,33.848 380.540 C 32.664 382.553,31.314 384.875,30.848 385.700 C 30.381 386.525,29.619 387.875,29.153 388.700 C 28.687 389.525,27.967 390.678,27.553 391.262 C 27.139 391.846,26.800 392.521,26.800 392.762 C 26.800 393.003,26.641 393.200,26.447 393.200 C 26.252 393.200,25.990 393.515,25.864 393.900 C 25.471 395.101,23.567 398.176,22.891 398.700 C 22.373 399.102,25.606 399.199,39.424 399.196 L 56.600 399.192 57.703 396.822 C 58.309 395.518,59.029 394.215,59.303 393.926 C 59.576 393.637,60.178 392.680,60.640 391.800 C 61.102 390.920,62.698 388.130,64.186 385.600 C 65.674 383.070,67.345 380.190,67.900 379.200 C 68.454 378.210,69.091 377.167,69.316 376.883 C 69.542 376.599,70.117 375.609,70.595 374.683 C 71.074 373.757,71.838 372.350,72.295 371.555 C 72.751 370.760,73.367 369.680,73.662 369.155 C 73.958 368.630,74.299 368.110,74.421 368.000 C 74.542 367.890,74.952 367.133,75.331 366.319 C 75.710 365.504,76.240 364.604,76.510 364.319 C 76.779 364.033,77.377 363.080,77.838 362.200 C 78.769 360.425,79.129 359.793,82.946 353.248 C 84.406 350.745,85.600 348.617,85.600 348.520 C 85.600 348.423,86.101 347.592,86.712 346.672 C 87.324 345.752,88.082 344.460,88.398 343.800 C 88.713 343.140,89.272 342.150,89.639 341.600 C 90.006 341.050,90.687 339.925,91.153 339.100 C 91.619 338.275,92.381 336.925,92.847 336.100 C 93.313 335.275,94.033 334.122,94.447 333.538 C 94.861 332.954,95.200 332.374,95.200 332.250 C 95.200 332.125,96.029 330.623,97.042 328.912 C 98.055 327.200,99.434 324.810,100.107 323.600 C 102.845 318.677,104.484 315.874,104.783 315.600 C 104.903 315.490,105.265 314.860,105.586 314.200 C 105.908 313.540,106.472 312.550,106.839 312.000 C 107.206 311.450,107.887 310.325,108.353 309.500 C 108.819 308.675,109.581 307.325,110.047 306.500 C 110.513 305.675,111.204 304.550,111.584 304.000 C 111.964 303.450,112.527 302.415,112.835 301.700 C 113.143 300.985,113.531 300.400,113.698 300.400 C 113.864 300.400,114.000 300.243,114.000 300.050 C 114.000 299.755,118.386 291.857,119.581 290.000 C 120.297 288.889,122.999 284.204,123.157 283.800 C 123.243 283.580,123.627 282.950,124.010 282.400 C 124.393 281.850,125.070 280.750,125.516 279.955 C 127.224 276.904,127.406 276.594,127.605 276.400 C 127.718 276.290,128.242 275.345,128.768 274.300 C 129.295 273.255,129.834 272.400,129.965 272.400 C 130.097 272.400,130.457 271.815,130.765 271.100 C 131.073 270.385,131.630 269.350,132.002 268.800 C 132.374 268.250,133.217 266.810,133.875 265.600 C 134.533 264.390,136.116 261.600,137.392 259.400 C 139.566 255.653,140.342 254.301,141.662 251.955 C 141.958 251.430,142.290 250.910,142.400 250.800 C 142.510 250.690,142.825 250.195,143.100 249.700 C 143.375 249.205,143.825 248.395,144.100 247.900 C 144.375 247.405,144.692 246.910,144.805 246.800 C 144.918 246.690,145.442 245.745,145.968 244.700 C 146.495 243.655,147.034 242.800,147.165 242.800 C 147.297 242.800,147.651 242.245,147.951 241.566 C 148.252 240.887,150.331 237.152,152.572 233.266 C 154.813 229.380,156.907 225.750,157.224 225.200 C 157.541 224.650,157.890 224.110,158.001 224.000 C 158.111 223.890,158.465 223.260,158.788 222.600 C 159.111 221.940,159.837 220.680,160.400 219.800 C 160.963 218.920,161.689 217.660,162.012 217.000 C 162.335 216.340,162.689 215.710,162.799 215.600 C 162.910 215.490,163.437 214.590,163.970 213.600 C 164.504 212.610,165.044 211.710,165.170 211.600 C 165.297 211.490,165.780 210.680,166.244 209.800 C 167.162 208.059,171.106 201.169,172.654 198.600 C 173.184 197.720,173.918 196.415,174.283 195.700 C 174.649 194.985,175.095 194.400,175.274 194.400 C 175.453 194.400,175.600 194.055,175.600 193.633 C 175.600 193.212,175.735 192.807,175.900 192.733 C 176.065 192.660,176.503 192.060,176.873 191.400 C 177.827 189.699,178.610 189.289,179.653 189.941 C 180.124 190.235,181.090 190.801,181.800 191.200 C 182.510 191.599,183.520 192.167,184.045 192.462 C 184.570 192.758,185.090 193.092,185.200 193.205 C 185.310 193.318,186.255 193.842,187.300 194.368 C 188.345 194.895,189.200 195.477,189.200 195.663 C 189.200 195.848,189.560 196.000,190.000 196.000 C 190.440 196.000,190.800 196.180,190.800 196.400 C 190.800 196.620,190.983 196.800,191.207 196.800 C 191.431 196.800,192.800 197.520,194.248 198.400 C 195.697 199.280,196.946 200.000,197.025 200.000 C 197.104 200.000,198.819 200.990,200.836 202.200 C 202.852 203.410,204.582 204.400,204.679 204.400 C 204.776 204.400,205.608 204.901,206.528 205.512 C 207.448 206.124,208.740 206.883,209.400 207.200 C 210.060 207.517,211.320 208.247,212.200 208.823 C 213.080 209.399,214.385 210.123,215.100 210.432 C 215.815 210.742,216.400 211.131,216.400 211.298 C 216.400 211.464,216.572 211.600,216.782 211.600 C 216.993 211.600,218.118 212.165,219.282 212.856 C 221.729 214.307,222.392 214.692,227.800 217.795 C 230.000 219.057,232.520 220.524,233.400 221.054 C 234.280 221.584,235.585 222.318,236.300 222.683 C 237.015 223.049,237.600 223.495,237.600 223.674 C 237.600 223.853,237.960 224.000,238.400 224.000 C 238.840 224.000,239.200 224.159,239.200 224.353 C 239.200 224.548,239.515 224.807,239.900 224.929 C 240.585 225.146,242.804 226.404,243.200 226.800 C 243.310 226.910,244.539 227.598,245.931 228.329 C 247.323 229.059,249.294 230.184,250.309 230.829 C 252.744 232.373,253.342 231.984,255.588 227.400 C 255.911 226.740,256.676 225.448,257.288 224.528 C 257.899 223.608,258.400 222.741,258.400 222.600 C 258.400 222.459,258.910 221.592,259.533 220.672 C 260.156 219.752,260.782 218.730,260.924 218.400 C 261.066 218.070,261.727 216.900,262.394 215.800 C 263.061 214.700,264.333 212.540,265.221 211.000 C 266.108 209.460,267.002 207.930,267.206 207.600 C 269.141 204.472,270.800 201.514,270.800 201.193 C 270.800 200.977,270.980 200.800,271.200 200.800 C 271.420 200.800,271.600 200.617,271.600 200.393 C 271.600 200.169,272.320 198.800,273.200 197.352 C 274.080 195.903,274.800 194.634,274.800 194.531 C 274.800 194.428,275.340 193.559,276.000 192.600 C 276.660 191.641,277.200 190.767,277.200 190.657 C 277.200 190.548,278.064 189.051,279.120 187.329 C 280.175 185.608,281.162 183.930,281.311 183.600 C 281.461 183.270,282.036 182.280,282.589 181.400 C 283.142 180.520,283.719 179.530,283.871 179.200 C 284.024 178.870,284.835 177.472,285.674 176.093 C 286.513 174.714,287.200 173.523,287.200 173.446 C 287.200 173.369,288.488 171.167,290.062 168.553 C 294.659 160.920,294.824 160.634,295.064 159.900 C 295.190 159.515,295.452 159.200,295.647 159.200 C 295.841 159.200,296.000 159.017,296.000 158.793 C 296.000 158.569,296.720 157.200,297.600 155.752 C 298.480 154.303,299.200 153.043,299.200 152.951 C 299.200 152.859,299.690 152.023,300.290 151.092 C 300.889 150.161,301.577 149.040,301.818 148.600 C 303.393 145.722,304.527 143.745,304.799 143.400 C 304.973 143.180,305.494 142.325,305.957 141.500 C 306.421 140.675,307.179 139.325,307.643 138.500 C 308.106 137.675,308.627 136.820,308.800 136.600 C 308.973 136.380,309.494 135.525,309.957 134.700 C 311.918 131.210,312.450 130.296,313.077 129.338 C 313.761 128.295,314.403 127.200,316.296 123.844 C 316.903 122.769,317.585 121.599,317.810 121.244 C 318.219 120.602,320.753 116.188,322.964 112.266 C 323.605 111.130,324.237 110.110,324.370 110.000 C 324.502 109.890,325.042 108.945,325.568 107.900 C 326.095 106.855,326.644 106.000,326.788 106.000 C 326.933 106.000,327.298 105.370,327.600 104.600 C 327.902 103.830,328.309 103.200,328.505 103.200 C 328.839 103.200,335.389 106.584,338.695 108.464 C 339.523 108.935,341.335 109.927,342.723 110.669 L 345.246 112.019 345.123 79.029 C 345.044 57.715,344.858 45.906,344.600 45.663 C 344.345 45.423,341.960 46.569,338.000 48.835 " stroke="none" fill="#fbfbfb" fill-rule="evenodd"/><path id="path1" d="M96.626 135.300 C 96.780 209.495,96.952 270.254,97.007 270.321 C 97.063 270.387,97.600 269.577,98.200 268.521 C 98.800 267.464,99.751 265.790,100.312 264.800 C 100.873 263.810,101.658 262.460,102.057 261.800 C 102.455 261.140,103.237 259.790,103.794 258.800 C 105.580 255.628,106.244 254.497,107.001 253.342 C 107.408 252.720,108.218 251.309,108.801 250.206 C 110.152 247.647,110.947 246.253,111.200 246.000 C 111.310 245.890,111.625 245.395,111.900 244.900 C 112.175 244.405,112.625 243.595,112.900 243.100 C 113.175 242.605,113.490 242.110,113.600 242.000 C 113.710 241.890,114.237 240.990,114.770 240.000 C 115.304 239.010,115.844 238.110,115.970 238.000 C 116.097 237.890,116.573 237.080,117.029 236.200 C 118.283 233.779,119.727 231.235,121.552 228.231 C 122.458 226.739,123.200 225.434,123.200 225.331 C 123.200 225.228,123.711 224.392,124.335 223.472 C 124.959 222.552,125.723 221.215,126.032 220.500 C 126.342 219.785,126.710 219.200,126.851 219.200 C 126.992 219.200,127.210 218.885,127.336 218.500 C 127.462 218.115,128.121 216.900,128.800 215.800 C 129.479 214.700,130.138 213.485,130.264 213.100 C 130.390 212.715,130.652 212.400,130.847 212.400 C 131.041 212.400,131.200 212.040,131.200 211.600 C 131.200 211.160,131.335 210.800,131.501 210.800 C 131.666 210.800,132.247 209.945,132.791 208.900 C 133.335 207.855,133.875 206.910,133.990 206.800 C 134.106 206.690,134.634 205.790,135.163 204.800 C 135.693 203.810,137.268 201.063,138.663 198.695 C 140.059 196.327,141.200 194.212,141.200 193.995 C 141.200 193.778,141.335 193.600,141.501 193.600 C 141.666 193.600,142.247 192.745,142.791 191.700 C 143.335 190.655,143.875 189.710,143.990 189.600 C 144.106 189.490,144.442 188.970,144.738 188.445 C 145.033 187.920,145.646 186.840,146.099 186.045 C 146.552 185.250,147.300 183.880,147.762 183.000 C 148.223 182.120,148.705 181.310,148.833 181.200 C 148.962 181.090,149.754 179.740,150.594 178.200 C 151.433 176.660,153.336 173.380,154.822 170.911 C 156.308 168.442,157.765 165.877,158.059 165.211 C 158.354 164.545,158.731 164.000,158.898 164.000 C 159.064 164.000,159.200 163.764,159.200 163.475 C 159.200 163.187,159.560 162.564,160.000 162.092 C 160.440 161.620,160.800 160.956,160.800 160.617 C 160.800 160.278,160.980 160.000,161.200 160.000 C 161.420 160.000,161.600 159.830,161.600 159.621 C 161.600 159.413,162.271 158.108,163.091 156.721 C 163.911 155.335,164.972 153.480,165.449 152.600 C 166.622 150.436,167.117 150.437,170.918 152.615 C 172.723 153.649,175.190 155.040,176.400 155.705 C 177.610 156.371,178.780 157.050,179.000 157.215 C 179.496 157.587,182.073 159.047,184.200 160.162 C 185.080 160.623,185.890 161.094,186.000 161.210 C 186.110 161.325,187.055 161.865,188.100 162.409 C 189.145 162.953,190.000 163.534,190.000 163.699 C 190.000 163.865,190.360 164.000,190.800 164.000 C 191.240 164.000,191.600 164.180,191.600 164.400 C 191.600 164.620,191.766 164.800,191.968 164.800 C 192.171 164.800,193.895 165.700,195.800 166.800 C 197.705 167.900,199.324 168.800,199.398 168.800 C 199.473 168.800,200.904 169.610,202.578 170.600 C 204.253 171.590,205.720 172.400,205.839 172.400 C 205.958 172.400,206.841 172.940,207.800 173.600 C 208.759 174.260,209.737 174.800,209.972 174.800 C 210.207 174.800,210.400 174.980,210.400 175.200 C 210.400 175.420,210.760 175.600,211.200 175.600 C 211.640 175.600,212.000 175.736,212.000 175.902 C 212.000 176.069,212.585 176.459,213.300 176.770 C 214.015 177.081,214.690 177.440,214.800 177.568 C 215.034 177.839,216.358 178.607,218.600 179.770 C 219.480 180.226,220.290 180.690,220.400 180.800 C 220.510 180.910,221.320 181.387,222.200 181.860 C 224.027 182.842,225.056 183.420,230.551 186.550 C 232.724 187.787,234.582 188.800,234.679 188.800 C 234.776 188.800,235.641 189.340,236.600 190.000 C 237.559 190.660,238.537 191.200,238.772 191.200 C 239.007 191.200,239.200 191.380,239.200 191.600 C 239.200 191.820,239.545 192.000,239.967 192.000 C 240.388 192.000,240.804 192.212,240.891 192.472 C 241.163 193.289,242.312 192.506,243.015 191.024 C 243.387 190.241,243.817 189.600,243.971 189.600 C 244.125 189.600,244.498 188.970,244.800 188.200 C 245.102 187.430,245.496 186.800,245.675 186.800 C 245.854 186.800,246.000 186.636,246.000 186.436 C 246.000 186.236,247.170 184.143,248.600 181.785 C 250.030 179.427,251.200 177.418,251.200 177.321 C 251.200 177.224,251.740 176.359,252.400 175.400 C 253.060 174.441,253.600 173.567,253.600 173.457 C 253.600 173.348,254.500 171.792,255.600 170.000 C 256.700 168.208,257.600 166.652,257.600 166.543 C 257.600 166.433,258.140 165.559,258.800 164.600 C 259.460 163.641,260.000 162.741,260.000 162.600 C 260.000 162.459,260.540 161.559,261.200 160.600 C 261.860 159.641,262.400 158.777,262.400 158.681 C 262.400 158.584,263.930 155.948,265.800 152.823 C 267.670 149.698,269.200 147.034,269.200 146.902 C 269.200 146.771,269.447 146.379,269.748 146.031 C 270.050 145.684,270.744 144.590,271.292 143.600 C 273.374 139.834,274.117 138.567,274.847 137.538 C 275.261 136.954,275.600 136.357,275.600 136.210 C 275.600 136.064,276.140 135.159,276.800 134.200 C 277.460 133.241,278.000 132.341,278.000 132.200 C 278.000 132.059,278.540 131.159,279.200 130.200 C 279.860 129.241,280.400 128.341,280.400 128.200 C 280.400 128.059,280.940 127.159,281.600 126.200 C 282.260 125.241,282.800 124.341,282.800 124.200 C 282.800 124.059,283.315 123.192,283.945 122.272 C 284.575 121.352,285.217 120.195,285.372 119.700 C 285.527 119.205,285.822 118.800,286.027 118.800 C 286.232 118.800,286.400 118.617,286.400 118.393 C 286.400 118.169,287.120 116.800,288.000 115.352 C 288.880 113.903,289.600 112.629,289.600 112.521 C 289.600 112.412,289.939 111.846,290.353 111.262 C 291.056 110.271,291.433 109.633,293.643 105.700 C 294.106 104.875,294.627 104.020,294.800 103.800 C 294.973 103.580,295.474 102.770,295.912 102.000 C 296.351 101.230,298.097 98.292,299.793 95.472 C 302.700 90.638,302.834 90.313,302.138 89.796 C 301.732 89.495,299.510 88.126,297.200 86.754 C 294.890 85.382,292.940 84.111,292.867 83.930 C 292.793 83.748,292.523 83.600,292.267 83.599 C 292.010 83.599,290.615 82.820,289.167 81.868 C 287.719 80.916,286.234 80.022,285.867 79.881 C 284.344 79.297,285.678 77.829,289.400 75.993 C 290.060 75.668,290.690 75.311,290.800 75.200 C 290.910 75.089,291.540 74.729,292.200 74.400 C 292.860 74.071,293.490 73.711,293.600 73.601 C 293.836 73.364,295.054 72.662,297.800 71.181 C 299.652 70.182,304.621 67.345,309.400 64.558 C 310.500 63.917,311.940 63.131,312.600 62.813 C 313.260 62.495,314.070 62.025,314.400 61.769 C 314.730 61.513,315.810 60.856,316.800 60.308 C 319.215 58.973,320.981 57.960,323.518 56.456 C 324.682 55.765,325.714 55.200,325.811 55.200 C 325.907 55.200,327.162 54.480,328.600 53.600 C 330.038 52.720,331.304 52.000,331.415 52.000 C 331.525 52.000,332.377 51.519,333.308 50.932 C 334.239 50.344,335.990 49.324,337.200 48.665 C 338.410 48.006,340.556 46.770,341.968 45.917 C 345.955 43.511,345.600 40.326,345.600 78.521 C 345.600 111.404,345.550 113.163,344.637 112.454 C 344.084 112.025,337.986 108.671,331.944 105.473 C 328.585 103.695,328.425 103.719,327.214 106.200 C 326.892 106.860,326.328 107.850,325.961 108.400 C 325.594 108.950,324.913 110.075,324.447 110.900 C 322.389 114.545,321.982 115.243,320.286 118.040 C 317.882 122.004,314.400 128.071,314.400 128.296 C 314.400 128.395,314.061 128.954,313.647 129.538 C 312.944 130.529,312.567 131.167,310.357 135.100 C 309.894 135.925,309.373 136.780,309.200 137.000 C 309.027 137.220,308.506 138.075,308.043 138.900 C 306.082 142.390,305.550 143.304,304.923 144.262 C 304.241 145.303,303.547 146.486,301.794 149.600 C 301.237 150.590,300.455 151.940,300.057 152.600 C 299.658 153.260,298.834 154.700,298.225 155.800 C 297.615 156.900,296.974 157.980,296.801 158.200 C 296.627 158.420,296.106 159.275,295.643 160.100 C 295.179 160.925,294.421 162.275,293.957 163.100 C 293.494 163.925,292.973 164.780,292.800 165.000 C 292.627 165.220,292.106 166.075,291.643 166.900 C 289.433 170.833,289.056 171.471,288.353 172.462 C 287.939 173.046,287.600 173.612,287.600 173.721 C 287.600 173.829,286.848 175.152,285.930 176.659 C 285.011 178.167,283.280 181.110,282.084 183.200 C 280.888 185.290,279.570 187.585,279.155 188.300 C 278.740 189.015,278.019 190.275,277.553 191.100 C 277.087 191.925,276.367 193.078,275.953 193.662 C 275.539 194.246,275.200 194.817,275.200 194.932 C 275.200 195.047,274.300 196.608,273.200 198.400 C 272.100 200.192,271.200 201.748,271.200 201.857 C 271.200 201.967,270.693 202.808,270.073 203.728 C 269.454 204.648,268.639 206.030,268.262 206.800 C 267.886 207.570,267.405 208.470,267.195 208.800 C 266.172 210.400,261.200 218.928,261.200 219.081 C 261.200 219.177,260.660 220.041,260.000 221.000 C 259.340 221.959,258.800 222.859,258.800 223.000 C 258.800 223.141,258.299 224.008,257.688 224.928 C 257.076 225.848,256.311 227.140,255.988 227.800 C 255.665 228.460,255.311 229.090,255.200 229.200 C 255.089 229.310,254.764 229.850,254.477 230.400 C 252.952 233.322,253.745 233.491,244.900 228.355 C 244.185 227.940,242.925 227.219,242.100 226.754 C 241.275 226.288,240.510 225.793,240.400 225.654 C 240.290 225.514,239.480 225.023,238.600 224.562 C 237.720 224.100,236.325 223.335,235.500 222.862 C 233.117 221.493,231.315 220.465,229.700 219.553 C 228.875 219.087,227.722 218.367,227.138 217.953 C 226.554 217.539,225.951 217.200,225.799 217.200 C 225.646 217.200,224.503 216.594,223.260 215.854 C 216.831 212.025,213.951 210.400,213.594 210.400 C 213.378 210.400,213.200 210.241,213.200 210.047 C 213.200 209.852,212.885 209.593,212.500 209.471 C 211.813 209.254,209.594 207.995,209.200 207.599 C 209.090 207.489,208.460 207.135,207.800 206.812 C 207.140 206.489,205.880 205.763,205.000 205.200 C 204.120 204.637,202.860 203.915,202.200 203.597 C 201.540 203.279,200.297 202.589,199.437 202.065 C 197.597 200.942,187.826 195.267,184.755 193.538 C 184.230 193.242,183.710 192.908,183.600 192.795 C 183.490 192.682,182.545 192.158,181.500 191.632 C 180.455 191.105,179.600 190.523,179.600 190.337 C 179.600 190.152,179.362 190.000,179.072 190.000 C 178.393 190.000,176.800 191.825,176.800 192.603 C 176.800 192.931,176.664 193.200,176.498 193.200 C 176.331 193.200,175.943 193.785,175.635 194.500 C 175.327 195.215,174.764 196.250,174.384 196.800 C 174.004 197.350,173.313 198.475,172.847 199.300 C 172.381 200.125,171.619 201.475,171.153 202.300 C 170.687 203.125,169.967 204.278,169.553 204.862 C 169.139 205.446,168.800 206.003,168.800 206.099 C 168.800 206.196,167.270 208.926,165.400 212.165 C 163.530 215.405,162.000 218.223,162.000 218.428 C 162.000 218.632,161.841 218.800,161.647 218.800 C 161.452 218.800,161.193 219.115,161.071 219.500 C 160.854 220.185,159.596 222.404,159.200 222.800 C 159.090 222.910,158.626 223.720,158.170 224.600 C 157.096 226.669,156.252 228.148,156.000 228.400 C 155.890 228.510,155.558 229.030,155.262 229.555 C 153.957 231.873,153.171 233.245,150.995 237.000 C 149.720 239.200,148.370 241.540,147.994 242.200 C 147.619 242.860,146.747 244.353,146.056 245.518 C 145.365 246.682,144.800 247.792,144.800 247.984 C 144.800 248.176,144.665 248.393,144.500 248.467 C 144.335 248.540,143.767 249.455,143.237 250.500 C 142.708 251.545,142.123 252.400,141.937 252.400 C 141.752 252.400,141.600 252.760,141.600 253.200 C 141.600 253.640,141.420 254.000,141.200 254.000 C 140.980 254.000,140.800 254.172,140.800 254.382 C 140.800 254.593,140.233 255.718,139.540 256.882 C 136.000 262.835,133.200 267.733,133.200 267.976 C 133.200 268.126,132.885 268.598,132.500 269.025 C 132.115 269.451,131.532 270.340,131.204 271.000 C 130.876 271.660,130.086 273.100,129.448 274.200 C 128.056 276.600,127.089 278.288,125.953 280.300 C 125.487 281.125,124.806 282.250,124.439 282.800 C 124.072 283.350,123.513 284.340,123.196 285.000 C 122.880 285.660,121.942 287.248,121.111 288.528 C 119.662 290.762,119.014 292.154,120.142 290.611 C 120.669 289.891,124.485 289.877,253.542 290.113 L 386.400 290.357 386.400 145.378 L 386.400 0.400 241.373 0.400 L 96.346 0.400 96.626 135.300 M90.200 282.000 C 89.859 282.660,89.669 283.200,89.779 283.200 C 89.889 283.200,90.259 282.660,90.600 282.000 C 90.941 281.340,91.131 280.800,91.021 280.800 C 90.911 280.800,90.541 281.340,90.200 282.000 M88.032 285.538 C 88.014 285.834,87.661 286.554,87.247 287.138 C 86.072 288.794,84.800 291.174,84.802 291.712 C 84.803 291.980,85.229 291.360,85.750 290.334 C 86.271 289.308,87.094 287.911,87.580 287.229 C 88.065 286.546,88.373 285.766,88.263 285.494 C 88.116 285.130,88.055 285.142,88.032 285.538 M83.400 293.600 C 83.059 294.260,82.869 294.800,82.979 294.800 C 83.089 294.800,83.459 294.260,83.800 293.600 C 84.141 292.940,84.331 292.400,84.221 292.400 C 84.111 292.400,83.741 292.940,83.400 293.600 M116.928 295.300 C 116.133 296.544,114.898 299.186,115.198 299.001 C 115.548 298.785,117.622 294.800,117.384 294.800 C 117.309 294.800,117.104 295.025,116.928 295.300 M111.000 305.600 C 110.659 306.260,110.469 306.800,110.579 306.800 C 110.689 306.800,111.059 306.260,111.400 305.600 C 111.741 304.940,111.931 304.400,111.821 304.400 C 111.711 304.400,111.341 304.940,111.000 305.600 M73.000 311.600 C 72.659 312.260,72.469 312.800,72.579 312.800 C 72.689 312.800,73.059 312.260,73.400 311.600 C 73.741 310.940,73.931 310.400,73.821 310.400 C 73.711 310.400,73.341 310.940,73.000 311.600 M98.233 327.708 C 97.619 328.858,97.299 329.620,97.521 329.400 C 98.098 328.829,99.667 325.934,99.494 325.761 C 99.414 325.681,98.847 326.557,98.233 327.708 M85.314 349.880 C 85.170 350.254,84.353 351.712,83.498 353.119 C 82.644 354.526,82.011 355.745,82.094 355.827 C 82.176 355.909,82.953 354.767,83.822 353.288 C 85.520 350.395,86.091 349.200,85.775 349.200 C 85.665 349.200,85.457 349.506,85.314 349.880 M49.753 351.700 C 48.376 354.036,48.286 354.235,48.987 353.400 C 49.800 352.432,50.500 351.200,50.238 351.200 C 50.133 351.200,49.915 351.425,49.753 351.700 M81.232 356.708 C 81.214 356.987,80.748 357.932,80.195 358.808 C 79.642 359.684,79.280 360.400,79.390 360.400 C 79.817 360.400,81.636 357.115,81.455 356.671 C 81.318 356.334,81.254 356.345,81.232 356.708 M35.400 376.400 C 35.059 377.060,34.869 377.600,34.979 377.600 C 35.089 377.600,35.459 377.060,35.800 376.400 C 36.141 375.740,36.331 375.200,36.221 375.200 C 36.111 375.200,35.741 375.740,35.400 376.400 M67.829 380.061 C 67.483 380.755,67.200 381.425,67.200 381.550 C 67.200 381.897,68.233 380.294,68.521 379.500 C 68.936 378.355,68.506 378.704,67.829 380.061 " stroke="none" fill="#249364" fill-rule="evenodd"/><path id="path2" d="M21.869 110.665 C 21.721 110.812,21.600 175.973,21.600 255.467 L 21.600 400.000 166.400 400.000 L 311.200 400.000 311.200 345.000 L 311.200 290.000 215.818 290.000 L 120.435 290.000 118.718 292.900 C 117.773 294.495,116.684 296.465,116.299 297.277 C 115.913 298.089,115.423 298.862,115.210 298.994 C 114.996 299.126,114.511 299.901,114.132 300.717 C 113.752 301.533,113.342 302.290,113.221 302.400 C 113.028 302.574,112.516 303.483,110.629 307.000 C 110.393 307.440,110.110 307.890,110.000 308.000 C 109.890 308.110,109.363 309.010,108.830 310.000 C 108.296 310.990,107.756 311.890,107.629 312.000 C 107.502 312.110,107.135 312.740,106.812 313.400 C 106.489 314.060,105.724 315.352,105.112 316.272 C 104.501 317.192,104.000 318.032,104.000 318.139 C 104.000 318.246,103.161 319.744,102.137 321.467 C 101.112 323.190,99.764 325.559,99.141 326.732 C 98.519 327.904,97.686 329.344,97.290 329.932 C 96.895 330.519,96.308 331.540,95.986 332.200 C 95.665 332.860,95.311 333.490,95.201 333.600 C 94.805 333.994,93.546 336.213,93.329 336.900 C 93.207 337.285,92.948 337.600,92.753 337.600 C 92.559 337.600,92.400 337.776,92.400 337.991 C 92.400 338.311,88.625 344.985,87.191 347.200 C 86.977 347.530,86.382 348.610,85.869 349.600 C 85.355 350.590,84.339 352.390,83.611 353.600 C 82.883 354.810,81.839 356.610,81.292 357.600 C 80.744 358.590,80.087 359.670,79.831 360.000 C 79.575 360.330,79.110 361.140,78.797 361.800 C 78.485 362.460,77.928 363.450,77.561 364.000 C 77.194 364.550,76.513 365.675,76.047 366.500 C 75.581 367.325,74.857 368.605,74.438 369.345 C 74.018 370.085,73.433 371.120,73.138 371.645 C 72.842 372.170,72.497 372.690,72.372 372.800 C 72.247 372.910,71.549 374.080,70.822 375.400 C 68.465 379.677,67.736 380.962,66.398 383.200 C 65.675 384.410,64.539 386.390,63.875 387.600 C 63.212 388.810,62.563 389.890,62.434 390.000 C 62.304 390.110,61.935 390.740,61.614 391.400 C 61.292 392.060,60.729 393.050,60.362 393.600 C 59.157 395.406,57.569 398.187,57.336 398.900 C 56.953 400.071,22.400 399.972,22.400 398.800 C 22.400 398.360,22.580 398.000,22.800 398.000 C 23.020 398.000,23.200 397.730,23.200 397.400 C 23.200 397.070,23.380 396.800,23.600 396.800 C 23.820 396.800,24.000 396.440,24.000 396.000 C 24.000 395.560,24.150 395.200,24.332 395.200 C 24.515 395.200,24.920 394.705,25.232 394.100 C 25.544 393.495,25.889 392.910,25.999 392.800 C 26.110 392.690,26.579 391.880,27.042 391.000 C 27.506 390.120,29.824 386.070,32.194 382.000 C 37.368 373.117,37.924 372.152,40.062 368.355 C 40.358 367.830,40.690 367.310,40.800 367.200 C 41.196 366.804,42.454 364.585,42.671 363.900 C 42.793 363.515,43.052 363.200,43.247 363.200 C 43.441 363.200,43.600 362.840,43.600 362.400 C 43.600 361.960,43.759 361.600,43.953 361.600 C 44.148 361.600,44.410 361.285,44.536 360.900 C 44.662 360.515,45.201 359.480,45.734 358.600 C 46.267 357.720,47.377 355.830,48.200 354.400 C 49.024 352.970,50.064 351.170,50.511 350.400 C 50.957 349.630,51.689 348.325,52.136 347.500 C 52.583 346.675,53.095 346.000,53.274 346.000 C 53.453 346.000,53.600 345.640,53.600 345.200 C 53.600 344.760,53.759 344.400,53.953 344.400 C 54.148 344.400,54.410 344.085,54.536 343.700 C 54.662 343.315,55.315 342.100,55.987 341.000 C 56.660 339.900,57.520 338.325,57.899 337.500 C 58.278 336.675,58.726 336.000,58.894 336.000 C 59.062 336.000,59.200 335.730,59.200 335.400 C 59.200 335.070,59.346 334.800,59.525 334.800 C 59.704 334.800,60.098 334.170,60.400 333.400 C 60.702 332.630,61.075 332.000,61.228 332.000 C 61.381 332.000,61.610 331.685,61.736 331.300 C 61.862 330.915,62.443 329.790,63.028 328.800 C 64.423 326.437,67.198 321.714,68.079 320.200 C 68.464 319.540,69.074 318.415,69.435 317.700 C 69.796 316.985,70.251 316.400,70.446 316.400 C 70.641 316.400,70.800 316.040,70.800 315.600 C 70.800 315.160,70.980 314.800,71.200 314.800 C 71.420 314.800,71.600 314.630,71.600 314.421 C 71.600 314.091,72.582 312.335,75.302 307.800 C 75.698 307.140,76.128 306.285,76.258 305.900 C 76.387 305.515,76.619 305.200,76.772 305.200 C 76.925 305.200,77.298 304.570,77.600 303.800 C 77.902 303.030,78.275 302.400,78.428 302.400 C 78.581 302.400,78.813 302.085,78.942 301.700 C 79.072 301.315,79.505 300.460,79.904 299.800 C 80.869 298.205,83.929 292.832,85.285 290.351 C 85.882 289.258,86.737 287.850,87.185 287.220 C 87.633 286.591,88.000 285.879,88.000 285.638 C 88.000 285.397,88.180 285.200,88.400 285.200 C 88.620 285.200,88.800 284.840,88.800 284.400 C 88.800 283.960,88.935 283.600,89.101 283.600 C 89.266 283.600,89.847 282.745,90.391 281.700 C 90.935 280.655,91.475 279.710,91.590 279.600 C 91.794 279.406,91.972 279.103,93.684 276.045 C 94.130 275.250,94.801 274.150,95.177 273.600 C 96.855 271.144,96.812 273.514,96.704 190.400 L 96.600 110.600 59.369 110.498 C 38.892 110.442,22.017 110.517,21.869 110.665 " stroke="none" fill="#0c4c5c" fill-rule="evenodd"/><path id="path3" d="M343.794 45.210 C 343.655 45.435,343.779 45.570,344.070 45.510 C 344.444 45.432,344.669 46.106,344.833 47.800 L 345.066 50.200 345.133 47.500 C 345.198 44.888,344.612 43.886,343.794 45.210 M281.814 126.235 C 281.441 126.804,281.205 127.338,281.289 127.422 C 281.373 127.507,281.758 127.041,282.144 126.388 C 283.006 124.928,282.748 124.809,281.814 126.235 M303.433 145.708 C 302.819 146.858,302.499 147.620,302.721 147.400 C 303.298 146.829,304.867 143.934,304.694 143.761 C 304.614 143.681,304.047 144.557,303.433 145.708 M265.853 153.300 L 265.133 154.600 265.958 153.600 C 266.689 152.713,267.014 152.000,266.686 152.000 C 266.624 152.000,266.249 152.585,265.853 153.300 M264.153 156.100 C 262.776 158.436,262.686 158.635,263.387 157.800 C 264.200 156.832,264.900 155.600,264.638 155.600 C 264.533 155.600,264.315 155.825,264.153 156.100 M187.600 162.756 C 188.150 163.211,188.870 163.585,189.200 163.589 C 189.726 163.594,189.406 163.381,187.101 162.190 C 186.826 162.047,187.050 162.302,187.600 162.756 M287.283 173.222 C 286.810 174.108,286.586 174.732,286.786 174.609 C 287.212 174.345,288.464 171.931,288.273 171.740 C 288.202 171.668,287.756 172.335,287.283 173.222 M216.400 179.164 C 216.950 179.614,217.580 179.983,217.800 179.985 C 218.228 179.988,217.505 179.434,216.200 178.760 C 215.669 178.485,215.736 178.621,216.400 179.164 M147.053 184.900 L 146.333 186.200 147.158 185.200 C 147.889 184.313,148.214 183.600,147.886 183.600 C 147.824 183.600,147.449 184.185,147.053 184.900 M135.000 205.600 C 134.659 206.260,134.469 206.800,134.579 206.800 C 134.689 206.800,135.059 206.260,135.400 205.600 C 135.741 204.940,135.931 204.400,135.821 204.400 C 135.711 204.400,135.341 204.940,135.000 205.600 M267.985 206.301 C 267.682 206.905,267.157 207.757,266.817 208.193 C 266.245 208.928,266.250 208.947,266.892 208.451 C 267.590 207.910,268.918 205.584,268.669 205.336 C 268.595 205.262,268.287 205.696,267.985 206.301 M132.943 209.037 C 132.472 210.003,132.242 210.697,132.433 210.580 C 132.864 210.313,134.160 207.624,133.952 207.426 C 133.869 207.346,133.415 208.071,132.943 209.037 M227.600 217.964 C 228.150 218.414,228.780 218.783,229.000 218.785 C 229.428 218.788,228.705 218.234,227.400 217.560 C 226.869 217.285,226.936 217.421,227.600 217.964 M257.068 224.700 C 256.029 226.434,255.189 228.122,255.306 228.239 C 255.386 228.319,255.935 227.488,256.527 226.392 C 257.383 224.808,257.817 223.449,257.068 224.700 M94.653 275.300 L 93.933 276.600 94.758 275.600 C 95.489 274.713,95.814 274.000,95.486 274.000 C 95.424 274.000,95.049 274.585,94.653 275.300 M92.253 279.300 L 91.533 280.600 92.358 279.600 C 93.089 278.713,93.414 278.000,93.086 278.000 C 93.024 278.000,92.649 278.585,92.253 279.300 M86.268 289.500 C 85.177 291.321,84.452 292.815,84.749 292.632 C 85.157 292.380,86.888 289.200,86.617 289.200 C 86.524 289.200,86.366 289.335,86.268 289.500 M119.745 289.700 C 119.027 290.716,117.900 292.987,118.305 292.600 C 118.785 292.143,120.461 289.200,120.242 289.200 C 120.163 289.200,119.939 289.425,119.745 289.700 M83.067 295.100 C 82.072 296.755,80.790 299.314,81.114 299.000 C 81.648 298.482,83.684 294.800,83.436 294.800 C 83.332 294.800,83.166 294.935,83.067 295.100 M77.453 304.900 L 76.733 306.200 77.558 305.200 C 78.289 304.313,78.614 303.600,78.286 303.600 C 78.224 303.600,77.849 304.185,77.453 304.900 M107.454 310.974 C 106.282 312.762,105.159 314.892,105.309 315.042 C 105.390 315.124,105.818 314.513,106.260 313.685 C 106.702 312.858,107.385 311.690,107.778 311.090 C 108.171 310.491,108.402 310.000,108.292 310.000 C 108.182 310.000,107.805 310.439,107.454 310.974 M103.762 317.128 C 101.216 321.665,100.771 322.569,101.564 321.600 C 102.014 321.050,102.386 320.477,102.391 320.327 C 102.396 320.176,102.968 319.139,103.662 318.022 C 104.357 316.905,104.849 315.916,104.757 315.824 C 104.664 315.731,104.217 316.318,103.762 317.128 M68.032 320.707 C 68.014 320.986,67.276 322.407,66.390 323.864 C 65.505 325.321,64.841 326.574,64.915 326.648 C 65.190 326.924,68.433 321.104,68.252 320.661 C 68.122 320.344,68.053 320.358,68.032 320.707 M98.253 326.900 L 97.533 328.200 98.358 327.200 C 99.089 326.313,99.414 325.600,99.086 325.600 C 99.024 325.600,98.649 326.185,98.253 326.900 M63.403 329.031 C 62.812 330.039,62.395 330.929,62.476 331.009 C 62.557 331.090,63.123 330.266,63.734 329.178 C 65.134 326.687,64.850 326.562,63.403 329.031 M96.586 329.700 L 95.952 331.000 96.767 330.000 C 97.552 329.037,97.808 328.400,97.410 328.400 C 97.306 328.400,96.935 328.985,96.586 329.700 M90.254 340.574 C 89.082 342.362,87.959 344.492,88.109 344.642 C 88.190 344.724,88.618 344.113,89.060 343.285 C 89.502 342.458,90.185 341.290,90.578 340.690 C 90.971 340.091,91.202 339.600,91.092 339.600 C 90.982 339.600,90.605 340.039,90.254 340.574 M87.046 346.187 C 85.950 347.858,84.278 351.023,84.713 350.600 C 84.939 350.380,85.505 349.514,85.970 348.674 C 86.435 347.835,87.102 346.710,87.454 346.174 C 87.805 345.639,88.002 345.200,87.892 345.200 C 87.782 345.200,87.401 345.644,87.046 346.187 M50.494 351.300 C 48.818 354.127,47.964 355.786,48.677 354.831 C 49.634 353.547,51.664 350.000,51.441 350.000 C 51.344 350.000,50.918 350.585,50.494 351.300 M83.386 352.500 L 82.752 353.800 83.567 352.800 C 84.352 351.837,84.608 351.200,84.210 351.200 C 84.106 351.200,83.735 351.785,83.386 352.500 M47.053 357.300 L 46.333 358.600 47.158 357.600 C 47.889 356.713,48.214 356.000,47.886 356.000 C 47.824 356.000,47.449 356.585,47.053 357.300 M80.214 357.835 C 79.841 358.404,79.627 358.961,79.739 359.072 C 79.850 359.183,80.229 358.718,80.581 358.037 C 81.359 356.533,81.144 356.415,80.214 357.835 M45.624 359.718 C 45.323 360.203,44.815 361.005,44.493 361.500 C 44.171 361.995,43.995 362.400,44.101 362.400 C 44.383 362.400,46.486 359.153,46.315 358.981 C 46.235 358.902,45.924 359.233,45.624 359.718 M76.057 364.857 C 75.775 365.309,75.632 365.766,75.740 365.873 C 75.847 365.981,76.144 365.678,76.400 365.200 C 77.005 364.070,76.724 363.790,76.057 364.857 M73.014 370.235 C 72.641 370.804,72.405 371.338,72.489 371.422 C 72.573 371.507,72.958 371.041,73.344 370.388 C 74.206 368.928,73.948 368.809,73.014 370.235 M71.536 372.900 C 70.559 374.483,69.860 375.994,70.033 376.152 C 70.125 376.236,70.687 375.336,71.282 374.152 C 72.393 371.943,72.524 371.301,71.536 372.900 M35.014 377.835 C 34.641 378.404,34.405 378.938,34.489 379.022 C 34.573 379.107,34.958 378.641,35.344 377.988 C 36.206 376.528,35.948 376.409,35.014 377.835 M68.085 378.813 C 67.818 379.240,67.601 379.817,67.602 380.095 C 67.604 380.373,67.877 380.078,68.210 379.440 C 68.903 378.111,68.811 377.650,68.085 378.813 M33.508 380.500 C 32.633 381.849,31.848 383.456,32.287 383.000 C 32.848 382.417,34.498 379.600,34.279 379.600 C 34.176 379.600,33.829 380.005,33.508 380.500 M66.253 382.100 L 65.533 383.400 66.358 382.400 C 67.089 381.513,67.414 380.800,67.086 380.800 C 67.024 380.800,66.649 381.385,66.253 382.100 M64.586 384.900 L 63.952 386.200 64.767 385.200 C 65.552 384.237,65.808 383.600,65.410 383.600 C 65.306 383.600,64.935 384.185,64.586 384.900 M29.853 386.900 L 29.133 388.200 29.958 387.200 C 30.689 386.313,31.014 385.600,30.686 385.600 C 30.624 385.600,30.249 386.185,29.853 386.900 M63.000 387.600 C 62.659 388.260,62.469 388.800,62.579 388.800 C 62.689 388.800,63.059 388.260,63.400 387.600 C 63.741 386.940,63.931 386.400,63.821 386.400 C 63.711 386.400,63.341 386.940,63.000 387.600 M28.253 389.700 L 27.533 391.000 28.358 390.000 C 29.089 389.113,29.414 388.400,29.086 388.400 C 29.024 388.400,28.649 388.985,28.253 389.700 M58.869 394.439 C 58.110 395.654,58.566 395.816,59.355 394.612 C 59.720 394.056,59.878 393.600,59.705 393.600 C 59.533 393.600,59.157 393.978,58.869 394.439 M52.707 399.490 C 53.426 399.579,54.506 399.577,55.107 399.486 C 55.708 399.395,55.120 399.322,53.800 399.324 C 52.480 399.326,51.988 399.401,52.707 399.490 " stroke="none" fill="#a6bcc1" fill-rule="evenodd"/><path id="path4" d="M343.200 45.250 L 342.200 46.095 343.286 45.447 C 343.883 45.091,344.558 44.800,344.786 44.800 C 345.068 44.800,345.200 55.564,345.200 78.590 L 345.200 112.379 343.199 111.199 C 342.098 110.550,340.613 109.734,339.899 109.385 L 338.600 108.752 339.600 109.567 C 340.150 110.015,340.727 110.386,340.882 110.391 C 341.038 110.396,342.079 110.939,343.196 111.598 C 344.626 112.441,345.283 112.648,345.417 112.298 C 345.521 112.024,345.560 96.682,345.503 78.205 C 345.391 41.557,345.512 43.298,343.200 45.250 M340.700 46.629 C 339.205 47.440,339.296 47.778,340.800 47.000 C 341.460 46.659,342.000 46.294,342.000 46.190 C 342.000 45.932,341.957 45.947,340.700 46.629 M337.900 48.229 C 337.295 48.557,336.800 48.910,336.800 49.013 C 336.800 49.399,337.432 49.157,338.400 48.400 C 339.589 47.470,339.411 47.409,337.900 48.229 M334.800 50.033 L 333.800 50.848 335.100 50.214 C 335.815 49.865,336.400 49.494,336.400 49.390 C 336.400 48.992,335.763 49.248,334.800 50.033 M332.000 51.646 C 331.230 52.085,330.088 52.718,329.463 53.052 C 328.837 53.386,328.422 53.755,328.540 53.873 C 328.658 53.991,329.259 53.736,329.877 53.306 C 330.495 52.877,331.585 52.273,332.300 51.965 C 333.015 51.657,333.600 51.269,333.600 51.102 C 333.600 50.719,333.655 50.700,332.000 51.646 M325.162 55.522 C 323.711 56.335,322.091 57.325,321.562 57.723 C 320.747 58.336,320.814 58.328,322.000 57.673 C 322.770 57.247,324.300 56.410,325.400 55.813 C 327.200 54.835,328.455 53.964,327.980 54.022 C 327.881 54.034,326.613 54.709,325.162 55.522 M318.800 59.236 C 318.136 59.779,318.069 59.915,318.600 59.640 C 319.905 58.966,320.628 58.412,320.200 58.415 C 319.980 58.417,319.350 58.786,318.800 59.236 M315.500 61.029 C 313.432 62.383,313.603 62.658,315.700 61.351 C 317.717 60.095,317.845 59.993,317.367 60.024 C 317.165 60.036,316.325 60.489,315.500 61.029 M308.500 65.026 C 306.612 66.158,306.177 66.749,307.900 65.841 C 309.109 65.203,310.716 64.031,310.400 64.017 C 310.290 64.012,309.435 64.466,308.500 65.026 M303.400 68.000 C 302.740 68.437,302.380 68.792,302.600 68.788 C 303.001 68.782,305.176 67.223,304.800 67.212 C 304.690 67.208,304.060 67.563,303.400 68.000 M300.897 69.417 C 300.065 70.000,296.476 71.988,294.503 72.959 C 294.010 73.201,293.605 73.553,293.603 73.739 C 293.601 73.926,294.185 73.700,294.900 73.237 C 295.615 72.773,297.100 71.942,298.200 71.388 C 300.084 70.441,302.452 68.828,301.989 68.809 C 301.873 68.804,301.381 69.078,300.897 69.417 M291.700 74.544 C 291.205 74.789,290.800 75.133,290.800 75.309 C 290.800 75.614,291.498 75.303,292.800 74.420 C 293.581 73.889,292.856 73.972,291.700 74.544 M288.994 76.139 C 285.204 78.307,284.369 79.306,285.867 79.881 C 286.234 80.022,287.719 80.916,289.167 81.868 C 290.615 82.820,291.958 83.599,292.151 83.599 C 292.345 83.600,291.124 82.700,289.439 81.600 C 287.754 80.500,286.201 79.600,285.988 79.600 C 285.538 79.600,285.451 78.404,285.900 78.391 C 286.065 78.386,287.190 77.760,288.400 77.000 C 290.414 75.735,290.879 75.061,288.994 76.139 M292.803 83.873 C 292.804 84.053,293.299 84.481,293.903 84.824 C 294.506 85.168,295.900 85.965,297.000 86.595 C 298.100 87.226,298.905 87.631,298.790 87.494 C 298.467 87.113,295.593 85.200,295.344 85.200 C 295.223 85.200,294.601 84.828,293.962 84.373 C 293.323 83.918,292.801 83.693,292.803 83.873 M299.200 87.763 C 299.200 87.853,300.011 88.438,301.003 89.063 C 302.059 89.729,302.723 90.416,302.607 90.721 C 302.498 91.007,302.587 91.132,302.805 90.997 C 303.531 90.548,303.214 90.066,301.380 88.828 C 299.601 87.628,299.200 87.432,299.200 87.763 M300.653 94.100 L 299.933 95.400 300.758 94.400 C 301.489 93.513,301.814 92.800,301.486 92.800 C 301.424 92.800,301.049 93.385,300.653 94.100 M297.029 100.029 C 296.430 100.933,296.012 101.746,296.101 101.834 C 296.189 101.922,296.748 101.251,297.343 100.343 C 297.938 99.434,298.355 98.622,298.271 98.537 C 298.186 98.453,297.627 99.124,297.029 100.029 M294.659 103.983 C 294.076 104.863,293.600 105.694,293.600 105.830 C 293.600 105.965,293.220 106.610,292.756 107.261 C 292.292 107.913,292.003 108.536,292.113 108.647 C 292.224 108.757,292.901 107.802,293.619 106.524 C 294.337 105.246,295.195 103.884,295.526 103.498 C 295.857 103.111,296.036 102.703,295.923 102.589 C 295.810 102.476,295.241 103.104,294.659 103.983 M328.006 103.989 C 327.500 104.933,327.808 105.050,328.632 104.226 C 328.966 103.891,329.046 103.552,328.823 103.414 C 328.612 103.284,328.245 103.543,328.006 103.989 M326.623 106.512 C 326.219 107.221,325.536 108.430,325.105 109.200 L 324.321 110.600 325.139 109.600 C 326.078 108.452,327.684 105.551,327.489 105.356 C 327.417 105.284,327.027 105.804,326.623 106.512 M335.200 107.167 C 336.163 107.952,336.800 108.208,336.800 107.810 C 336.800 107.706,336.215 107.335,335.500 106.986 L 334.200 106.352 335.200 107.167 M291.054 110.174 C 290.702 110.710,290.048 111.802,289.600 112.600 C 289.152 113.398,288.497 114.535,288.145 115.126 L 287.505 116.200 288.331 115.200 C 288.785 114.650,289.496 113.566,289.910 112.790 C 290.324 112.015,290.985 110.890,291.378 110.290 C 291.771 109.691,292.002 109.200,291.892 109.200 C 291.782 109.200,291.405 109.639,291.054 110.174 M323.386 112.100 L 322.752 113.400 323.567 112.400 C 324.352 111.437,324.608 110.800,324.210 110.800 C 324.106 110.800,323.735 111.385,323.386 112.100 M320.778 116.469 C 319.847 118.081,319.010 119.535,318.919 119.700 C 318.828 119.865,318.838 120.000,318.943 120.000 C 319.244 120.000,322.831 113.898,322.642 113.708 C 322.548 113.615,321.710 114.857,320.778 116.469 M286.885 117.213 C 286.618 117.640,286.401 118.217,286.402 118.495 C 286.404 118.773,286.677 118.478,287.010 117.840 C 287.703 116.511,287.611 116.050,286.885 117.213 M317.814 121.435 C 317.441 122.004,317.205 122.538,317.289 122.622 C 317.373 122.707,317.758 122.241,318.144 121.588 C 319.006 120.128,318.748 120.009,317.814 121.435 M315.419 125.621 C 314.639 126.953,314.000 128.140,314.000 128.260 C 314.000 128.379,313.661 128.954,313.246 129.538 C 311.969 131.336,310.213 134.762,311.164 133.600 C 311.614 133.050,311.986 132.448,311.991 132.262 C 311.996 132.076,312.339 131.446,312.753 130.862 C 313.167 130.278,313.908 129.080,314.399 128.200 C 314.890 127.320,315.738 125.835,316.284 124.900 C 316.829 123.965,317.178 123.200,317.057 123.200 C 316.937 123.200,316.200 124.290,315.419 125.621 M279.053 130.391 C 278.053 131.902,277.615 132.996,278.336 132.180 C 278.892 131.552,280.479 128.800,280.286 128.800 C 280.187 128.800,279.632 129.516,279.053 130.391 M276.653 134.391 C 276.074 135.267,275.600 136.094,275.600 136.230 C 275.600 136.365,275.261 136.954,274.847 137.538 C 273.237 139.807,270.025 145.792,271.164 144.400 C 271.614 143.850,271.986 143.283,271.991 143.141 C 271.996 142.998,272.737 141.669,273.637 140.188 C 274.537 138.706,275.620 136.876,276.044 136.121 C 276.468 135.366,277.102 134.310,277.454 133.774 C 277.805 133.239,278.005 132.800,277.899 132.800 C 277.793 132.800,277.232 133.516,276.653 134.391 M309.570 135.666 C 309.298 136.180,308.813 137.005,308.492 137.500 C 308.171 137.995,307.995 138.400,308.101 138.400 C 308.436 138.400,310.469 135.136,310.262 134.929 C 310.154 134.820,309.842 135.152,309.570 135.666 M306.986 140.100 L 306.352 141.400 307.167 140.400 C 307.952 139.437,308.208 138.800,307.810 138.800 C 307.706 138.800,307.335 139.385,306.986 140.100 M305.422 142.622 C 305.045 143.198,304.816 143.749,304.914 143.847 C 305.012 143.945,305.400 143.554,305.778 142.978 C 306.155 142.402,306.384 141.851,306.286 141.753 C 306.188 141.655,305.800 142.046,305.422 142.622 M269.745 146.100 C 268.865 147.346,267.985 149.199,268.277 149.190 C 268.455 149.185,268.986 148.375,269.458 147.390 C 270.314 145.605,270.415 145.152,269.745 146.100 M300.537 151.004 C 300.283 151.552,300.237 151.901,300.435 151.778 C 300.963 151.452,301.682 149.999,301.314 150.003 C 301.141 150.005,300.792 150.455,300.537 151.004 M167.600 150.923 C 167.600 151.028,169.085 151.964,170.900 153.002 C 172.715 154.041,174.806 155.239,175.547 155.665 C 176.288 156.091,176.963 156.371,177.046 156.287 C 177.130 156.203,176.704 155.886,176.099 155.582 C 175.495 155.278,174.550 154.735,174.000 154.375 C 172.253 153.234,167.600 150.723,167.600 150.923 M266.253 152.100 L 265.533 153.400 266.358 152.400 C 267.089 151.513,267.414 150.800,267.086 150.800 C 267.024 150.800,266.649 151.385,266.253 152.100 M264.600 154.800 C 264.259 155.460,264.069 156.000,264.179 156.000 C 264.289 156.000,264.659 155.460,265.000 154.800 C 265.341 154.140,265.531 153.600,265.421 153.600 C 265.311 153.600,264.941 154.140,264.600 154.800 M298.246 154.986 C 297.891 155.528,297.600 156.081,297.600 156.214 C 297.600 156.347,297.060 157.241,296.400 158.200 C 295.740 159.159,295.200 160.064,295.200 160.210 C 295.200 160.357,294.872 160.954,294.472 161.538 C 293.166 163.442,291.470 166.687,292.348 165.600 C 292.793 165.050,293.499 163.970,293.917 163.200 C 295.297 160.658,296.481 158.606,296.801 158.200 C 297.349 157.505,299.233 154.000,299.059 154.000 C 298.967 154.000,298.601 154.444,298.246 154.986 M162.986 156.900 L 162.352 158.200 163.167 157.200 C 163.952 156.237,164.208 155.600,163.810 155.600 C 163.706 155.600,163.335 156.185,162.986 156.900 M178.200 157.007 C 178.640 157.366,179.360 157.835,179.800 158.051 L 180.600 158.444 179.800 157.793 C 179.360 157.434,178.640 156.965,178.200 156.749 L 177.400 156.356 178.200 157.007 M184.000 160.383 C 185.206 161.275,186.000 161.624,186.000 161.261 C 186.000 161.059,185.685 160.782,185.300 160.646 C 184.915 160.511,184.330 160.296,184.000 160.169 C 183.467 159.965,183.467 159.988,184.000 160.383 M159.657 162.457 C 159.375 162.909,159.232 163.366,159.340 163.473 C 159.447 163.581,159.744 163.278,160.000 162.800 C 160.256 162.322,160.398 161.865,160.317 161.784 C 160.236 161.703,159.939 162.006,159.657 162.457 M260.120 162.300 C 259.980 162.685,259.356 163.752,258.733 164.672 C 258.110 165.592,257.600 166.433,257.600 166.543 C 257.600 166.652,256.700 168.208,255.600 170.000 C 254.500 171.792,253.600 173.353,253.600 173.468 C 253.600 173.583,253.261 174.154,252.847 174.738 C 252.433 175.322,251.709 176.486,251.239 177.326 C 250.769 178.165,250.097 179.335,249.745 179.926 L 249.105 181.000 249.935 180.000 C 250.391 179.450,250.992 178.550,251.270 178.000 C 251.548 177.450,252.276 176.248,252.888 175.328 C 253.499 174.408,254.000 173.567,254.000 173.457 C 254.000 173.348,254.900 171.792,256.000 170.000 C 257.100 168.208,258.000 166.652,258.000 166.543 C 258.000 166.433,258.510 165.592,259.133 164.672 C 260.293 162.960,260.931 161.600,260.575 161.600 C 260.465 161.600,260.260 161.915,260.120 162.300 M158.072 165.183 C 157.784 165.833,156.021 168.914,154.154 172.030 C 152.288 175.145,150.838 177.771,150.932 177.865 C 151.078 178.011,151.970 176.584,154.223 172.600 C 154.471 172.160,155.268 170.810,155.994 169.600 C 158.417 165.557,159.228 164.000,158.910 164.000 C 158.737 164.000,158.360 164.532,158.072 165.183 M194.400 166.367 C 195.363 167.152,196.000 167.408,196.000 167.010 C 196.000 166.906,195.415 166.535,194.700 166.186 L 193.400 165.552 194.400 166.367 M289.854 169.216 C 289.054 170.559,288.404 171.779,288.409 171.929 C 288.421 172.311,289.980 170.274,289.991 169.862 C 289.996 169.676,290.380 168.990,290.844 168.339 C 291.308 167.687,291.602 167.069,291.498 166.964 C 291.394 166.860,290.654 167.874,289.854 169.216 M196.400 167.379 C 196.400 167.489,196.940 167.859,197.600 168.200 C 198.260 168.541,198.800 168.731,198.800 168.621 C 198.800 168.511,198.260 168.141,197.600 167.800 C 196.940 167.459,196.400 167.269,196.400 167.379 M199.200 168.966 C 199.200 169.057,200.415 169.808,201.900 170.635 C 203.385 171.462,205.196 172.471,205.926 172.877 C 206.655 173.283,207.735 173.903,208.326 174.255 L 209.400 174.895 208.400 174.065 C 207.850 173.609,206.950 173.006,206.400 172.724 C 205.850 172.442,204.080 171.444,202.467 170.506 C 199.560 168.815,199.200 168.645,199.200 168.966 M210.833 175.758 C 211.430 176.323,214.800 177.962,214.800 177.688 C 214.800 177.502,214.170 177.102,213.400 176.800 C 212.630 176.498,212.000 176.104,212.000 175.925 C 212.000 175.746,211.700 175.600,211.333 175.600 C 210.967 175.600,210.742 175.671,210.833 175.758 M218.400 179.983 C 219.606 180.875,220.400 181.224,220.400 180.861 C 220.400 180.659,220.085 180.382,219.700 180.246 C 219.315 180.111,218.730 179.896,218.400 179.769 C 217.867 179.565,217.867 179.588,218.400 179.983 M248.186 182.500 L 247.552 183.800 248.367 182.800 C 249.152 181.837,249.408 181.200,249.010 181.200 C 248.906 181.200,248.535 181.785,248.186 182.500 M223.200 182.767 C 224.163 183.552,224.800 183.808,224.800 183.410 C 224.800 183.306,224.215 182.935,223.500 182.586 L 222.200 181.952 223.200 182.767 M281.814 183.035 C 281.441 183.604,281.205 184.138,281.289 184.222 C 281.373 184.307,281.758 183.841,282.144 183.188 C 283.006 181.728,282.748 181.609,281.814 183.035 M246.614 185.035 C 246.241 185.604,246.027 186.161,246.139 186.272 C 246.250 186.383,246.629 185.918,246.981 185.237 C 247.759 183.733,247.544 183.615,246.614 185.035 M280.553 185.300 C 279.176 187.636,279.086 187.835,279.787 187.000 C 280.600 186.032,281.300 184.800,281.038 184.800 C 280.933 184.800,280.715 185.025,280.553 185.300 M228.000 185.331 C 228.000 185.508,229.024 186.108,234.800 189.316 C 235.570 189.744,236.698 190.447,237.306 190.878 C 237.914 191.310,238.634 191.573,238.906 191.463 C 239.270 191.316,239.258 191.255,238.862 191.232 C 238.566 191.214,237.846 190.861,237.262 190.447 C 236.678 190.033,235.570 189.344,234.800 188.916 C 234.030 188.488,232.185 187.462,230.700 186.635 C 229.215 185.808,228.000 185.221,228.000 185.331 M145.014 187.835 C 144.641 188.404,144.405 188.938,144.489 189.022 C 144.573 189.107,144.958 188.641,145.344 187.988 C 146.206 186.528,145.948 186.409,145.014 187.835 M278.447 188.873 C 278.160 189.333,277.578 190.326,277.155 191.080 C 276.731 191.834,276.097 192.935,275.745 193.526 L 275.105 194.600 275.935 193.600 C 276.391 193.050,276.991 192.150,277.268 191.600 C 277.545 191.050,278.112 190.095,278.529 189.477 C 278.946 188.859,279.216 188.282,279.128 188.195 C 279.041 188.108,278.735 188.413,278.447 188.873 M177.798 190.402 C 176.775 191.532,177.210 191.637,178.286 190.520 C 178.773 190.014,179.026 189.600,178.848 189.600 C 178.670 189.600,178.197 189.961,177.798 190.402 M243.015 191.024 C 242.644 191.807,241.948 192.606,241.470 192.799 C 240.884 193.035,240.808 193.158,241.238 193.175 C 241.911 193.201,242.608 192.511,243.734 190.700 C 244.111 190.095,244.255 189.600,244.055 189.600 C 243.855 189.600,243.387 190.241,243.015 191.024 M180.224 190.987 C 180.651 191.310,181.180 191.575,181.400 191.575 C 181.620 191.575,181.451 191.310,181.024 190.987 C 180.596 190.664,180.067 190.400,179.847 190.400 C 179.627 190.400,179.796 190.664,180.224 190.987 M142.600 192.000 C 142.259 192.660,142.069 193.200,142.179 193.200 C 142.289 193.200,142.659 192.660,143.000 192.000 C 143.341 191.340,143.531 190.800,143.421 190.800 C 143.311 190.800,142.941 191.340,142.600 192.000 M175.744 193.507 C 175.284 194.368,174.415 195.957,173.813 197.037 C 173.039 198.422,172.960 198.706,173.542 198.000 C 173.996 197.450,174.777 196.190,175.278 195.200 C 175.779 194.210,176.349 193.286,176.543 193.146 C 176.738 193.007,176.826 192.678,176.739 192.417 C 176.652 192.155,176.204 192.645,175.744 193.507 M184.000 193.089 C 184.330 193.213,185.078 193.648,185.662 194.057 C 186.246 194.466,186.872 194.800,187.055 194.800 C 187.237 194.800,186.723 194.350,185.914 193.800 C 185.105 193.250,184.208 192.814,183.921 192.832 C 183.568 192.853,183.594 192.936,184.000 193.089 M141.200 193.995 C 141.200 194.212,140.055 196.327,138.656 198.695 C 137.257 201.063,135.895 203.450,135.630 204.000 L 135.146 205.000 135.964 204.000 C 136.414 203.450,136.786 202.883,136.791 202.741 C 136.796 202.598,137.485 201.338,138.323 199.941 C 141.381 194.841,142.025 193.600,141.617 193.600 C 141.388 193.600,141.200 193.778,141.200 193.995 M187.600 194.964 C 187.600 195.107,192.564 198.119,195.700 199.879 C 195.865 199.971,196.000 199.955,196.000 199.843 C 196.000 199.730,194.875 198.975,193.500 198.164 C 189.302 195.688,187.600 194.765,187.600 194.964 M274.253 196.100 L 273.533 197.400 274.358 196.400 C 275.089 195.513,275.414 194.800,275.086 194.800 C 275.024 194.800,274.649 195.385,274.253 196.100 M171.853 200.500 L 171.133 201.800 171.958 200.800 C 172.689 199.913,173.014 199.200,172.686 199.200 C 172.624 199.200,172.249 199.785,171.853 200.500 M198.735 201.604 C 200.129 202.517,201.352 203.181,201.453 203.080 C 201.554 202.979,200.593 202.290,199.318 201.549 C 196.030 199.636,195.769 199.661,198.735 201.604 M170.186 203.300 L 169.552 204.600 170.367 203.600 C 171.152 202.637,171.408 202.000,171.010 202.000 C 170.906 202.000,170.535 202.585,170.186 203.300 M205.600 205.600 C 206.150 206.030,206.759 206.386,206.954 206.391 C 207.149 206.396,206.850 206.040,206.291 205.600 C 205.731 205.160,205.122 204.804,204.937 204.809 C 204.752 204.814,205.050 205.170,205.600 205.600 M167.014 208.635 C 166.641 209.204,166.405 209.738,166.489 209.822 C 166.573 209.907,166.958 209.441,167.344 208.788 C 168.206 207.328,167.948 207.209,167.014 208.635 M267.162 208.300 C 266.329 209.337,265.522 210.855,265.705 211.038 C 265.793 211.127,266.113 210.704,266.415 210.099 C 266.718 209.495,267.226 208.685,267.545 208.300 C 267.863 207.915,268.034 207.600,267.924 207.600 C 267.814 207.600,267.471 207.915,267.162 208.300 M211.200 208.764 C 211.750 209.214,212.380 209.583,212.600 209.585 C 213.028 209.588,212.305 209.034,211.000 208.360 C 210.469 208.085,210.536 208.221,211.200 208.764 M213.200 209.983 C 213.200 210.212,213.378 210.400,213.594 210.400 C 213.951 210.400,216.831 212.025,223.260 215.854 C 224.503 216.594,225.664 217.200,225.839 217.200 C 226.251 217.200,223.256 215.307,220.200 213.636 C 218.880 212.914,217.620 212.192,217.400 212.031 C 215.983 210.993,213.200 209.636,213.200 209.983 M165.414 211.435 C 165.041 212.004,164.805 212.538,164.889 212.622 C 164.973 212.707,165.358 212.241,165.744 211.588 C 166.606 210.128,166.348 210.009,165.414 211.435 M264.283 212.900 C 263.918 213.615,263.139 215.010,262.553 216.000 C 261.966 216.990,261.149 218.396,260.736 219.126 C 260.323 219.855,259.697 220.935,259.345 221.526 L 258.705 222.600 259.531 221.600 C 259.985 221.050,260.698 219.970,261.115 219.200 C 261.532 218.430,262.703 216.405,263.717 214.700 C 264.731 212.995,265.423 211.600,265.255 211.600 C 265.086 211.600,264.649 212.185,264.283 212.900 M163.019 215.621 C 162.239 216.953,161.600 218.256,161.600 218.516 C 161.600 218.775,161.979 218.271,162.442 217.394 C 162.905 216.517,163.640 215.215,164.075 214.500 C 164.510 213.785,164.769 213.200,164.652 213.200 C 164.534 213.200,163.800 214.290,163.019 215.621 M127.814 217.435 C 127.441 218.004,127.205 218.538,127.289 218.622 C 127.373 218.707,127.758 218.241,128.144 217.588 C 129.006 216.128,128.748 216.009,127.814 217.435 M160.832 219.128 C 160.814 219.418,160.290 220.408,159.667 221.328 C 158.398 223.202,157.794 224.575,158.405 224.197 C 158.622 224.063,158.800 223.693,158.800 223.376 C 158.800 223.059,158.980 222.800,159.200 222.800 C 159.420 222.800,159.600 222.603,159.600 222.362 C 159.600 222.121,159.974 221.398,160.431 220.756 C 160.889 220.114,161.173 219.366,161.063 219.094 C 160.913 218.724,160.855 218.732,160.832 219.128 M231.200 220.364 C 231.750 220.814,232.380 221.183,232.600 221.185 C 233.028 221.188,232.305 220.634,231.000 219.960 C 230.469 219.685,230.536 219.821,231.200 220.364 M236.800 223.564 C 237.350 224.014,237.980 224.383,238.200 224.385 C 238.628 224.388,237.905 223.834,236.600 223.160 C 236.069 222.885,236.136 223.021,236.800 223.564 M257.853 224.100 L 257.133 225.400 257.958 224.400 C 258.689 223.513,259.014 222.800,258.686 222.800 C 258.624 222.800,258.249 223.385,257.853 224.100 M123.814 224.235 C 123.441 224.804,123.205 225.338,123.289 225.422 C 123.373 225.507,123.758 225.041,124.144 224.388 C 125.006 222.928,124.748 222.809,123.814 224.235 M157.053 226.100 L 156.333 227.400 157.158 226.400 C 157.889 225.513,158.214 224.800,157.886 224.800 C 157.824 224.800,157.449 225.385,157.053 226.100 M240.400 225.495 C 240.400 225.884,242.014 226.919,242.251 226.682 C 242.347 226.586,241.969 226.210,241.412 225.845 C 240.856 225.480,240.400 225.322,240.400 225.495 M121.364 228.500 C 120.553 229.875,119.441 231.810,118.891 232.800 C 118.342 233.790,117.711 234.829,117.489 235.110 C 117.268 235.390,117.181 235.714,117.297 235.830 C 117.483 236.016,119.600 232.597,119.600 232.111 C 119.600 232.008,119.928 231.446,120.328 230.862 C 121.483 229.178,123.253 226.000,123.036 226.000 C 122.927 226.000,122.175 227.125,121.364 228.500 M243.000 227.100 C 243.220 227.334,244.030 227.880,244.800 228.315 C 245.570 228.750,247.640 229.936,249.400 230.950 C 253.142 233.107,252.859 233.042,253.560 231.900 C 254.094 231.031,254.087 231.023,253.345 231.682 C 252.510 232.423,252.846 232.551,247.600 229.485 C 244.490 227.667,242.622 226.698,243.000 227.100 M154.653 230.100 L 153.933 231.400 154.758 230.400 C 155.489 229.513,155.814 228.800,155.486 228.800 C 155.424 228.800,155.049 229.385,154.653 230.100 M152.986 232.900 L 152.352 234.200 153.167 233.200 C 153.952 232.237,154.208 231.600,153.810 231.600 C 153.706 231.600,153.335 232.185,152.986 232.900 M151.446 235.386 C 151.091 235.928,150.800 236.487,150.800 236.628 C 150.800 236.769,150.305 237.630,149.700 238.542 C 149.095 239.454,148.336 240.740,148.014 241.400 C 147.692 242.060,147.107 243.078,146.714 243.662 C 146.321 244.246,146.000 244.872,146.000 245.055 C 146.000 245.237,146.450 244.723,147.000 243.914 C 147.550 243.105,148.000 242.346,148.000 242.228 C 148.000 242.110,148.701 240.869,149.557 239.470 C 151.996 235.485,153.472 232.294,151.446 235.386 M145.021 246.624 C 144.652 247.188,144.406 247.801,144.475 247.986 C 144.544 248.171,144.911 247.710,145.292 246.962 C 146.109 245.353,145.968 245.178,145.021 246.624 M110.791 246.500 C 110.786 246.775,110.430 247.450,110.000 248.000 C 109.239 248.973,108.836 250.172,109.536 249.380 C 110.422 248.377,111.616 246.000,111.233 246.000 C 110.995 246.000,110.796 246.225,110.791 246.500 M143.600 248.741 C 143.600 249.002,143.148 249.932,142.595 250.808 C 142.042 251.684,141.744 252.400,141.932 252.400 C 142.414 252.400,144.185 248.852,143.864 248.531 C 143.719 248.386,143.600 248.480,143.600 248.741 M107.454 252.574 C 106.845 253.503,106.287 254.456,104.099 258.300 C 103.567 259.235,103.220 260.000,103.328 260.000 C 103.495 260.000,105.032 257.471,106.610 254.600 C 106.852 254.160,107.374 253.305,107.771 252.700 C 108.167 252.095,108.402 251.600,108.292 251.600 C 108.182 251.600,107.805 252.039,107.454 252.574 M140.152 255.118 C 138.622 257.617,137.556 259.600,137.743 259.600 C 138.023 259.600,140.878 254.744,140.702 254.568 C 140.629 254.496,140.382 254.743,140.152 255.118 M136.600 261.200 C 136.259 261.860,136.069 262.400,136.179 262.400 C 136.289 262.400,136.659 261.860,137.000 261.200 C 137.341 260.540,137.531 260.000,137.421 260.000 C 137.311 260.000,136.941 260.540,136.600 261.200 M102.480 260.880 C 102.216 261.144,102.000 261.508,102.000 261.688 C 102.000 261.868,101.550 262.729,101.000 263.600 C 99.963 265.243,99.588 266.379,100.541 264.989 C 101.264 263.936,103.214 260.400,103.072 260.400 C 103.010 260.400,102.744 260.616,102.480 260.880 M135.014 263.835 C 134.641 264.404,134.427 264.961,134.539 265.072 C 134.650 265.183,135.029 264.718,135.381 264.037 C 136.159 262.533,135.944 262.415,135.014 263.835 M133.868 265.900 C 132.829 267.634,131.989 269.322,132.106 269.439 C 132.186 269.519,132.735 268.688,133.327 267.592 C 134.183 266.008,134.617 264.649,133.868 265.900 M97.846 269.030 C 96.422 271.577,96.538 271.842,98.034 269.459 C 98.704 268.392,99.171 267.438,99.072 267.339 C 98.973 267.239,98.421 268.000,97.846 269.030 M130.432 271.482 C 130.414 271.748,129.835 272.918,129.144 274.082 C 127.891 276.195,127.120 277.528,125.592 280.226 C 125.148 281.010,124.497 282.135,124.145 282.726 L 123.505 283.800 124.331 282.800 C 124.785 282.250,125.499 281.170,125.917 280.400 C 126.841 278.697,127.878 276.891,129.562 274.053 C 130.262 272.872,130.751 271.702,130.649 271.453 C 130.519 271.136,130.454 271.145,130.432 271.482 M121.366 287.469 C 120.759 288.531,120.091 289.625,119.882 289.900 C 119.673 290.175,119.609 290.400,119.739 290.400 C 120.092 290.400,122.876 285.943,122.658 285.725 C 122.555 285.622,121.974 286.406,121.366 287.469 M26.270 392.210 C 26.121 392.645,25.891 393.270,25.758 393.600 C 25.626 393.930,25.819 393.790,26.188 393.290 C 26.558 392.789,26.788 392.164,26.700 391.900 C 26.610 391.631,26.422 391.767,26.270 392.210 M29.726 399.500 C 33.866 399.565,40.526 399.565,44.526 399.499 C 48.527 399.434,45.140 399.381,37.000 399.381 C 28.860 399.381,25.587 399.434,29.726 399.500 " stroke="none" fill="#8ac4aa" fill-rule="evenodd"/></g></svg>