<?xml version="1.0" encoding="UTF-8" standalone="no"?>
<svg
   width="500"
   zoomAndPan="magnify"
   viewBox="0 0 375 99"
   height="132"
   preserveAspectRatio="xMidYMid"
   version="1.0"
   id="svg13"
   sodipodi:docname="WOWS.svg"
   inkscape:export-filename="wows-white.png"
   inkscape:export-xdpi="96"
   inkscape:export-ydpi="96"
   inkscape:version="1.4 (e7c3feb100, 2024-10-09)"
   xmlns:inkscape="http://www.inkscape.org/namespaces/inkscape"
   xmlns:sodipodi="http://sodipodi.sourceforge.net/DTD/sodipodi-0.dtd"
   xmlns="http://www.w3.org/2000/svg"
   xmlns:svg="http://www.w3.org/2000/svg">
  <sodipodi:namedview
     id="namedview13"
     pagecolor="#ffffff"
     bordercolor="#000000"
     borderopacity="0.25"
     inkscape:showpageshadow="2"
     inkscape:pageopacity="0.0"
     inkscape:pagecheckerboard="0"
     inkscape:deskcolor="#d1d1d1"
     inkscape:zoom="1.122367"
     inkscape:cx="212.05186"
     inkscape:cy="88.206446"
     inkscape:window-width="1920"
     inkscape:window-height="1045"
     inkscape:window-x="0"
     inkscape:window-y="35"
     inkscape:window-maximized="1"
     inkscape:current-layer="svg13" />
  <defs
     id="defs1">
    <g
       id="g1" />
  </defs>
  <g
     fill="#ffffff"
     fill-opacity="1"
     id="g4"
     transform="matrix(1.2270797,0,0,1.2270797,-41.062831,-88.786328)">
    <g
       transform="translate(34.94953,144.00168)"
       id="g3">
      <g
         id="g2">
        <path
           d="m 29.40625,0 h -8.75 L 1.6875,-64.09375 H 9.75 l 15.875,53 15.78125,-53 h 7.390625 L 64.6875,-11 80.46875,-64.09375 h 8.0625 L 69.546875,0 H 60.8125 L 45.109375,-51.484375 Z m 0,0"
           id="path1" />
      </g>
    </g>
  </g>
  <g
     fill="#ffffff"
     fill-opacity="1"
     id="g7"
     transform="matrix(1.2270797,0,0,1.2270797,-41.062831,-88.786328)">
    <g
       transform="translate(125.16637,144.00168)"
       id="g6">
      <g
         id="g5">
        <path
           d="m 33.9375,0.84375 c -5.042969,0 -9.429688,-0.8789062 -13.15625,-2.640625 C 17.0625,-3.566406 13.96875,-5.988281 11.5,-9.0625 9.039062,-12.144531 7.207031,-15.660156 6,-19.609375 4.800781,-23.554688 4.203125,-27.71875 4.203125,-32.09375 c 0,-4.363281 0.597656,-8.519531 1.796875,-12.46875 1.207031,-3.945312 3.039062,-7.445312 5.5,-10.5 2.46875,-3.050781 5.5625,-5.457031 9.28125,-7.21875 3.726562,-1.769531 8.113281,-2.65625 13.15625,-2.65625 5.09375,0 9.515625,0.886719 13.265625,2.65625 3.757813,1.761719 6.867187,4.167969 9.328125,7.21875 2.46875,3.054688 4.300781,6.554688 5.5,10.5 1.207031,3.949219 1.8125,8.105469 1.8125,12.46875 0,4.375 -0.605469,8.539062 -1.8125,12.484375 -1.199219,3.949219 -3.03125,7.464844 -5.5,10.546875 -2.460938,3.074219 -5.570312,5.496094 -9.328125,7.265625 -3.75,1.7617188 -8.171875,2.640625 -13.265625,2.640625 z m 0,-6.96875 c 4.8125,0 8.867188,-1.117188 12.171875,-3.359375 3.3125,-2.25 5.804687,-5.332031 7.484375,-9.25 1.675781,-3.914063 2.515625,-8.367187 2.515625,-13.359375 0,-4.976562 -0.839844,-9.410156 -2.515625,-13.296875 -1.679688,-3.894531 -4.171875,-6.960937 -7.484375,-9.203125 -3.304687,-2.238281 -7.359375,-3.359375 -12.171875,-3.359375 -4.710938,0 -8.703125,1.121094 -11.984375,3.359375 -3.273437,2.242188 -5.761719,5.308594 -7.46875,9.203125 -1.710937,3.886719 -2.5625,8.320313 -2.5625,13.296875 0,4.992188 0.851563,9.445312 2.5625,13.359375 1.707031,3.917969 4.195313,7 7.46875,9.25 3.28125,2.242187 7.273437,3.359375 11.984375,3.359375 z m 0,0"
           id="path4" />
      </g>
    </g>
  </g>
  <g
     fill="#ffffff"
     fill-opacity="1"
     id="g10"
     transform="matrix(1.2270797,0,0,1.2270797,-41.062831,-88.786328)">
    <g
       transform="translate(193.291,144.00168)"
       id="g9">
      <g
         id="g8">
        <path
           d="m 29.40625,0 h -8.75 L 1.6875,-64.09375 H 9.75 l 15.875,53 15.78125,-53 h 7.390625 L 64.6875,-11 80.46875,-64.09375 h 8.0625 L 69.546875,0 H 60.8125 L 45.109375,-51.484375 Z m 0,0"
           id="path7" />
      </g>
    </g>
  </g>
  <g
     fill="#ffffff"
     fill-opacity="1"
     id="g13"
     transform="matrix(1.2270797,0,0,1.2270797,-41.062831,-88.786328)">
    <g
       transform="translate(283.50784,144.00168)"
       id="g12">
      <g
         id="g11">
        <path
           d="m 29.8125,0.84375 c -4.199219,0 -8.171875,-0.6875 -11.921875,-2.0625 -3.75,-1.375 -6.902344,-3.554688 -9.453125,-6.546875 -2.542969,-3 -4.179688,-6.878906 -4.90625,-11.640625 h 7.8125 c 0.664062,3.417969 1.976562,6.09375 3.9375,8.03125 1.96875,1.929688 4.28125,3.296875 6.9375,4.109375 2.65625,0.8125 5.300781,1.21875 7.9375,1.21875 4.476562,0 7.988281,-0.9375 10.53125,-2.8125 2.550781,-1.875 3.828125,-4.71875 3.828125,-8.53125 0,-2.289063 -0.492187,-4.164063 -1.46875,-5.625 -0.980469,-1.457031 -2.308594,-2.632813 -3.984375,-3.53125 -1.679688,-0.894531 -3.570312,-1.617187 -5.671875,-2.171875 -2.105469,-0.5625 -4.304687,-1.097656 -6.59375,-1.609375 -2.523437,-0.5 -5,-1.082031 -7.4375,-1.75 -2.4375,-0.675781 -4.652344,-1.601563 -6.640625,-2.78125 -1.980469,-1.175781 -3.574219,-2.757813 -4.78125,-4.75 -1.210938,-1.988281 -1.8125,-4.550781 -1.8125,-7.6875 0,-3.632813 0.878906,-6.765625 2.640625,-9.390625 1.769531,-2.632812 4.222656,-4.664062 7.359375,-6.09375 3.132812,-1.4375 6.800781,-2.15625 11,-2.15625 3.644531,0 7.101562,0.632812 10.375,1.890625 3.28125,1.261719 6.082031,3.234375 8.40625,5.921875 2.320312,2.6875 3.820312,6.246094 4.5,10.671875 h -7.484375 c -0.617187,-2.90625 -1.734375,-5.195313 -3.359375,-6.875 -1.625,-1.6875 -3.53125,-2.894531 -5.71875,-3.625 -2.179688,-0.726563 -4.445312,-1.09375 -6.796875,-1.09375 -4.3125,0 -7.589844,0.914063 -9.828125,2.734375 -2.242188,1.824219 -3.359375,4.273438 -3.359375,7.34375 0,2.585938 0.769531,4.589844 2.3125,6.015625 1.539063,1.429687 3.554687,2.523437 6.046875,3.28125 2.488281,0.75 5.160156,1.433594 8.015625,2.046875 2.632813,0.5625 5.253906,1.210938 7.859375,1.9375 2.601562,0.730469 4.96875,1.742188 7.09375,3.03125 2.132812,1.28125 3.84375,3.015625 5.125,5.203125 1.289062,2.179687 1.9375,5.03125 1.9375,8.5625 0,5.65625 -1.90625,10.195313 -5.71875,13.609375 -3.804688,3.417969 -9.375,5.125 -16.71875,5.125 z m 0,0"
           id="path10" />
      </g>
    </g>
  </g>
</svg>
