<?xml version="1.0" encoding="utf-8"?>
<!-- Generator: Adobe Illustrator 24.1.2, SVG Export Plug-In . SVG Version: 6.00 Build 0)  -->
<svg version="1.1" id="Layer_1" xmlns="http://www.w3.org/2000/svg" xmlns:xlink="http://www.w3.org/1999/xlink" x="0px" y="0px"
	 viewBox="0 0 1920 1080" style="enable-background:new 0 0 1920 1080;" xml:space="preserve">
<style type="text/css">
	.st0{fill:#79F22A;}
</style>
<g>
	<rect x="638.78" y="535.47" class="st0" width="18.66" height="18.66"/>
	<rect x="638.77" y="516.81" class="st0" width="18.66" height="18.66"/>
	<rect x="638.78" y="554.13" class="st0" width="18.66" height="18.66"/>
	<rect x="620.11" y="516.81" class="st0" width="18.66" height="18.66"/>
	<rect x="620.12" y="535.48" class="st0" width="18.66" height="18.66"/>
	<rect x="657.44" y="554.13" class="st0" width="18.66" height="18.66"/>
	<rect x="657.44" y="535.47" class="st0" width="18.66" height="18.66"/>
	<rect x="657.45" y="572.79" class="st0" width="18.66" height="18.66"/>
	<rect x="676.11" y="572.79" class="st0" width="18.66" height="18.66"/>
	<rect x="676.1" y="554.13" class="st0" width="18.66" height="18.66"/>
	<rect x="676.11" y="591.45" class="st0" width="18.66" height="18.66"/>
	<rect x="694.77" y="591.45" class="st0" width="18.66" height="18.66"/>
	<rect x="694.77" y="572.79" class="st0" width="18.66" height="18.66"/>
	<rect x="694.77" y="610.11" class="st0" width="18.66" height="18.66"/>
	
		<rect x="788.06" y="498.12" transform="matrix(-1 1.681857e-04 -1.681857e-04 -1 1594.8743 1014.7764)" class="st0" width="18.66" height="18.66"/>
	
		<rect x="788.06" y="479.46" transform="matrix(-1 1.681857e-04 -1.681857e-04 -1 1594.8649 977.4533)" class="st0" width="18.66" height="18.66"/>
	
		<rect x="788.07" y="516.79" transform="matrix(-1 1.681857e-04 -1.681857e-04 -1 1594.8837 1052.0996)" class="st0" width="18.66" height="18.66"/>
	
		<rect x="769.41" y="516.79" transform="matrix(-1 1.681857e-04 -1.681857e-04 -1 1557.5605 1052.109)" class="st0" width="18.66" height="18.66"/>
	
		<rect x="769.4" y="498.13" transform="matrix(-1 1.681857e-04 -1.681857e-04 -1 1557.5511 1014.7859)" class="st0" width="18.66" height="18.66"/>
	
		<rect x="769.41" y="535.45" transform="matrix(-1 1.681857e-04 -1.681857e-04 -1 1557.5699 1089.4323)" class="st0" width="18.66" height="18.66"/>
	
		<rect x="750.75" y="535.45" transform="matrix(-1 1.681857e-04 -1.681857e-04 -1 1520.2468 1089.4417)" class="st0" width="18.66" height="18.66"/>
	
		<rect x="750.74" y="516.79" transform="matrix(-1 1.681857e-04 -1.681857e-04 -1 1520.2374 1052.1184)" class="st0" width="18.66" height="18.66"/>
	
		<rect x="750.75" y="554.12" transform="matrix(-1 1.681857e-04 -1.681857e-04 -1 1520.2562 1126.7648)" class="st0" width="18.66" height="18.66"/>
	
		<rect x="732.09" y="554.12" transform="matrix(-1 1.681857e-04 -1.681857e-04 -1 1482.933 1126.7742)" class="st0" width="18.66" height="18.66"/>
	
		<rect x="732.09" y="535.46" transform="matrix(-1 1.681857e-04 -1.681857e-04 -1 1482.9236 1089.451)" class="st0" width="18.66" height="18.66"/>
	
		<rect x="732.09" y="572.78" transform="matrix(-1 1.681857e-04 -1.681857e-04 -1 1482.9425 1164.0974)" class="st0" width="18.66" height="18.66"/>
	
		<rect x="862.7" y="423.47" transform="matrix(-1 1.681857e-04 -1.681857e-04 -1 1744.1293 865.4461)" class="st0" width="18.66" height="18.66"/>
	
		<rect x="862.69" y="404.8" transform="matrix(-1 1.681857e-04 -1.681857e-04 -1 1744.1199 828.123)" class="st0" width="18.66" height="18.66"/>
	
		<rect x="862.7" y="442.13" transform="matrix(-1 1.681857e-04 -1.681857e-04 -1 1744.1387 902.7693)" class="st0" width="18.66" height="18.66"/>
	
		<rect x="844.04" y="442.13" transform="matrix(-1 1.681857e-04 -1.681857e-04 -1 1706.8156 902.7787)" class="st0" width="18.66" height="18.66"/>
	
		<rect x="844.04" y="423.47" transform="matrix(-1 1.681857e-04 -1.681857e-04 -1 1706.8062 865.4556)" class="st0" width="18.66" height="18.66"/>
	
		<rect x="844.04" y="460.79" transform="matrix(-1 1.681857e-04 -1.681857e-04 -1 1706.825 940.1019)" class="st0" width="18.66" height="18.66"/>
	
		<rect x="825.38" y="460.8" transform="matrix(-1 1.681857e-04 -1.681857e-04 -1 1669.5018 940.1113)" class="st0" width="18.66" height="18.66"/>
	
		<rect x="825.38" y="442.13" transform="matrix(-1 1.681857e-04 -1.681857e-04 -1 1669.4923 902.7881)" class="st0" width="18.66" height="18.66"/>
	
		<rect x="825.38" y="479.46" transform="matrix(-1 1.681857e-04 -1.681857e-04 -1 1669.5112 977.4344)" class="st0" width="18.66" height="18.66"/>
	
		<rect x="918.67" y="367.47" transform="matrix(-1 1.681857e-04 -1.681857e-04 -1 1856.0706 753.4484)" class="st0" width="18.66" height="18.66"/>
	
		<rect x="918.68" y="386.13" transform="matrix(-1 1.681857e-04 -1.681857e-04 -1 1856.08 790.7715)" class="st0" width="18.66" height="18.66"/>
	
		<rect x="900.01" y="386.14" transform="matrix(-1 1.681857e-04 -1.681857e-04 -1 1818.7567 790.7809)" class="st0" width="18.66" height="18.66"/>
	
		<rect x="900.01" y="367.47" transform="matrix(-1 1.681857e-04 -1.681857e-04 -1 1818.7473 753.4578)" class="st0" width="18.66" height="18.66"/>
	
		<rect x="900.02" y="404.8" transform="matrix(-1 1.681857e-04 -1.681857e-04 -1 1818.7662 828.1041)" class="st0" width="18.66" height="18.66"/>
	
		<rect x="881.36" y="404.8" transform="matrix(-1 1.681857e-04 -1.681857e-04 -1 1781.443 828.1135)" class="st0" width="18.66" height="18.66"/>
	
		<rect x="881.35" y="386.14" transform="matrix(-1 1.681857e-04 -1.681857e-04 -1 1781.4336 790.7904)" class="st0" width="18.66" height="18.66"/>
	
		<rect x="881.36" y="423.46" transform="matrix(-1 1.681857e-04 -1.681857e-04 -1 1781.4524 865.4367)" class="st0" width="18.66" height="18.66"/>
	
		<rect x="806.72" y="479.46" transform="matrix(-1 1.681857e-04 -1.681857e-04 -1 1632.188 977.4438)" class="st0" width="18.66" height="18.66"/>
	
		<rect x="806.72" y="460.8" transform="matrix(-1 1.681857e-04 -1.681857e-04 -1 1632.1786 940.1207)" class="st0" width="18.66" height="18.66"/>
	
		<rect x="806.73" y="498.12" transform="matrix(-1 1.681857e-04 -1.681857e-04 -1 1632.1974 1014.767)" class="st0" width="18.66" height="18.66"/>
	
		<rect x="713.43" y="572.78" transform="matrix(-1 1.681857e-04 -1.681857e-04 -1 1445.6193 1164.1068)" class="st0" width="18.66" height="18.66"/>
	
		<rect x="713.43" y="554.12" transform="matrix(-1 1.681857e-04 -1.681857e-04 -1 1445.6099 1126.7836)" class="st0" width="18.66" height="18.66"/>
	
		<rect x="713.43" y="591.44" transform="matrix(-1 1.681857e-04 -1.681857e-04 -1 1445.6287 1201.4299)" class="st0" width="18.66" height="18.66"/>
</g>
</svg>
