<?xml version="1.0" encoding="utf-8"?>
<!-- Generator: Adobe Illustrator 24.1.2, SVG Export Plug-In . SVG Version: 6.00 Build 0)  -->
<svg version="1.1" id="Layer_1" xmlns="http://www.w3.org/2000/svg" xmlns:xlink="http://www.w3.org/1999/xlink" x="0px" y="0px"
	 viewBox="0 0 1920 1080" style="enable-background:new 0 0 1920 1080;" xml:space="preserve">
<style type="text/css">
	.st0{fill:#EFFF17;}
</style>
<g>
	<rect x="960.33" y="466.33" class="st0" width="8.71" height="8.71"/>
	<rect x="969.04" y="475.04" class="st0" width="8.71" height="8.71"/>
	<rect x="960.33" y="475.04" class="st0" width="8.71" height="8.71"/>
	<rect x="969.04" y="483.75" class="st0" width="8.71" height="8.71"/>
	<rect x="960.33" y="483.75" class="st0" width="8.71" height="8.71"/>
	<rect x="960.33" y="492.45" class="st0" width="8.71" height="8.71"/>
	<rect x="960.33" y="501.16" class="st0" width="8.71" height="8.71"/>
	<rect x="969.04" y="492.45" class="st0" width="8.71" height="8.71"/>
	<rect x="969.04" y="501.16" class="st0" width="8.71" height="8.71"/>
	<rect x="960.33" y="509.86" class="st0" width="8.71" height="8.71"/>
	<rect x="960.33" y="518.57" class="st0" width="8.71" height="8.71"/>
	<rect x="969.04" y="509.86" class="st0" width="8.71" height="8.71"/>
	<rect x="969.04" y="518.57" class="st0" width="8.71" height="8.71"/>
	<rect x="977.75" y="509.86" class="st0" width="8.71" height="8.71"/>
	<rect x="977.75" y="518.57" class="st0" width="8.71" height="8.71"/>
	<rect x="986.45" y="509.86" class="st0" width="8.71" height="8.71"/>
	<rect x="986.45" y="518.57" class="st0" width="8.71" height="8.71"/>
	<rect x="995.16" y="509.86" class="st0" width="8.71" height="8.71"/>
	<rect x="995.16" y="518.57" class="st0" width="8.71" height="8.71"/>
	<rect x="1003.86" y="509.86" class="st0" width="8.71" height="8.71"/>
	<rect x="1012.57" y="509.86" class="st0" width="8.71" height="8.71"/>
	<rect x="1021.27" y="509.86" class="st0" width="8.71" height="8.71"/>
	<rect x="1029.98" y="509.86" class="st0" width="8.71" height="8.71"/>
	<rect x="1003.86" y="518.57" class="st0" width="8.71" height="8.71"/>
	<rect x="1012.57" y="518.57" class="st0" width="8.71" height="8.71"/>
	<rect x="960.33" y="527.27" class="st0" width="8.71" height="8.71"/>
	<rect x="969.04" y="527.27" class="st0" width="8.71" height="8.71"/>
	<rect x="977.75" y="527.27" class="st0" width="8.71" height="8.71"/>
	<rect x="986.45" y="527.27" class="st0" width="8.71" height="8.71"/>
	<rect x="995.16" y="527.27" class="st0" width="8.71" height="8.71"/>
	<rect x="1003.86" y="527.27" class="st0" width="8.71" height="8.71"/>
	<rect x="960.33" y="535.98" class="st0" width="8.71" height="8.71"/>
	<rect x="969.04" y="535.98" class="st0" width="8.71" height="8.71"/>
	<rect x="977.75" y="535.98" class="st0" width="8.71" height="8.71"/>
	<rect x="986.45" y="535.98" class="st0" width="8.71" height="8.71"/>
	<rect x="995.16" y="535.98" class="st0" width="8.71" height="8.71"/>
	<rect x="960.33" y="544.69" class="st0" width="8.71" height="8.71"/>
	<rect x="969.04" y="544.69" class="st0" width="8.71" height="8.71"/>
	<rect x="977.75" y="544.69" class="st0" width="8.71" height="8.71"/>
	<rect x="986.45" y="544.69" class="st0" width="8.71" height="8.71"/>
	<rect x="995.16" y="544.69" class="st0" width="8.71" height="8.71"/>
	<rect x="960.33" y="553.39" class="st0" width="8.71" height="8.71"/>
	<rect x="969.04" y="553.39" class="st0" width="8.71" height="8.71"/>
	<rect x="977.75" y="553.39" class="st0" width="8.71" height="8.71"/>
	<rect x="986.45" y="553.39" class="st0" width="8.71" height="8.71"/>
	<rect x="995.16" y="553.39" class="st0" width="8.71" height="8.71"/>
	<rect x="960.33" y="562.1" class="st0" width="8.71" height="8.71"/>
	<rect x="969.04" y="562.1" class="st0" width="8.71" height="8.71"/>
	<rect x="977.75" y="562.1" class="st0" width="8.71" height="8.71"/>
	<rect x="986.45" y="562.1" class="st0" width="8.71" height="8.71"/>
	<rect x="995.16" y="562.1" class="st0" width="8.71" height="8.71"/>
	<rect x="960.33" y="570.8" class="st0" width="8.71" height="8.71"/>
	<rect x="969.04" y="570.8" class="st0" width="8.71" height="8.71"/>
	<rect x="977.75" y="570.8" class="st0" width="8.71" height="8.71"/>
	<rect x="986.45" y="570.8" class="st0" width="8.71" height="8.71"/>
	<rect x="995.16" y="570.8" class="st0" width="8.71" height="8.71"/>
	<rect x="1003.86" y="570.8" class="st0" width="8.71" height="8.71"/>
	<rect x="969.04" y="579.51" class="st0" width="8.71" height="8.71"/>
	<rect x="977.75" y="579.51" class="st0" width="8.71" height="8.71"/>
	<rect x="986.45" y="579.51" class="st0" width="8.71" height="8.71"/>
	<rect x="995.16" y="579.51" class="st0" width="8.71" height="8.71"/>
	<rect x="1003.86" y="579.51" class="st0" width="8.71" height="8.71"/>
	<rect x="977.75" y="588.22" class="st0" width="8.71" height="8.71"/>
	<rect x="986.45" y="588.22" class="st0" width="8.71" height="8.71"/>
	<rect x="995.16" y="588.22" class="st0" width="8.71" height="8.71"/>
	<rect x="1003.86" y="588.22" class="st0" width="8.71" height="8.71"/>
	<rect x="1003.86" y="596.92" class="st0" width="8.71" height="8.71"/>
	<rect x="995.16" y="596.92" class="st0" width="8.71" height="8.71"/>
	<rect x="1012.57" y="588.22" class="st0" width="8.71" height="8.71"/>
	<rect x="1003.86" y="535.98" class="st0" width="8.71" height="8.71"/>
	<rect x="1012.57" y="527.27" class="st0" width="8.71" height="8.71"/>
	<rect x="1021.27" y="518.57" class="st0" width="8.71" height="8.71"/>
	<rect x="977.75" y="492.45" class="st0" width="8.71" height="8.71"/>
	<rect x="977.75" y="501.16" class="st0" width="8.71" height="8.71"/>
	<rect x="986.45" y="501.16" class="st0" width="8.71" height="8.71"/>
	<rect x="995.16" y="501.16" class="st0" width="8.71" height="8.71"/>
	<rect x="1003.86" y="501.16" class="st0" width="8.71" height="8.71"/>
	<rect x="1012.57" y="501.16" class="st0" width="8.71" height="8.71"/>
	<rect x="1029.98" y="501.16" class="st0" width="8.71" height="8.71"/>
	<rect x="1021.27" y="501.16" class="st0" width="8.71" height="8.71"/>
	<rect x="1038.69" y="509.86" class="st0" width="8.71" height="8.71"/>
	<rect x="1029.98" y="518.57" class="st0" width="8.71" height="8.71"/>
	<rect x="1003.86" y="544.69" class="st0" width="8.71" height="8.71"/>
	<rect x="1021.27" y="527.27" class="st0" width="8.71" height="8.71"/>
	<rect x="1012.57" y="535.98" class="st0" width="8.71" height="8.71"/>
	<rect x="1003.86" y="553.39" class="st0" width="8.71" height="8.71"/>
	<rect x="1003.86" y="562.1" class="st0" width="8.71" height="8.71"/>
	<rect x="1012.57" y="570.8" class="st0" width="8.71" height="8.71"/>
	<rect x="1012.57" y="579.51" class="st0" width="8.71" height="8.71"/>
	<rect x="1021.27" y="588.22" class="st0" width="8.71" height="8.71"/>
	<rect x="1021.27" y="596.92" class="st0" width="8.71" height="8.71"/>
	<rect x="1012.57" y="596.92" class="st0" width="8.71" height="8.71"/>
	<rect x="1012.57" y="605.63" class="st0" width="8.71" height="8.71"/>
	<rect x="1003.86" y="605.63" class="st0" width="8.71" height="8.71"/>
	<rect x="986.45" y="596.92" class="st0" width="8.71" height="8.71"/>
	<rect x="995.16" y="605.63" class="st0" width="8.71" height="8.71"/>
	<rect x="977.75" y="596.92" class="st0" width="8.71" height="8.71"/>
	<rect x="969.04" y="588.22" class="st0" width="8.71" height="8.71"/>
	<rect x="960.33" y="579.51" class="st0" width="8.71" height="8.71"/>
	
		<rect x="951.63" y="466.33" transform="matrix(-1 -4.492197e-11 4.492197e-11 -1 1911.9608 941.3726)" class="st0" width="8.71" height="8.71"/>
	
		<rect x="942.92" y="475.04" transform="matrix(-1 -4.481716e-11 4.481716e-11 -1 1894.5491 958.7843)" class="st0" width="8.71" height="8.71"/>
	
		<rect x="951.63" y="475.04" transform="matrix(-1 -4.492197e-11 4.492197e-11 -1 1911.9608 958.7843)" class="st0" width="8.71" height="8.71"/>
	
		<rect x="942.92" y="483.75" transform="matrix(-1 -4.492197e-11 4.492197e-11 -1 1894.5491 976.1961)" class="st0" width="8.71" height="8.71"/>
	
		<rect x="951.63" y="483.75" transform="matrix(-1 -4.492197e-11 4.492197e-11 -1 1911.9608 976.1961)" class="st0" width="8.71" height="8.71"/>
	
		<rect x="951.63" y="492.45" transform="matrix(-1 -4.481716e-11 4.481716e-11 -1 1911.9608 993.6078)" class="st0" width="8.71" height="8.71"/>
	
		<rect x="951.63" y="501.16" transform="matrix(-1 -4.492197e-11 4.492197e-11 -1 1911.9608 1011.0196)" class="st0" width="8.71" height="8.71"/>
	
		<rect x="942.92" y="492.45" transform="matrix(-1 -4.492197e-11 4.492197e-11 -1 1894.5491 993.6078)" class="st0" width="8.71" height="8.71"/>
	
		<rect x="942.92" y="501.16" transform="matrix(-1 -4.481716e-11 4.481716e-11 -1 1894.5491 1011.0196)" class="st0" width="8.71" height="8.71"/>
	
		<rect x="951.63" y="509.86" transform="matrix(-1 -4.492197e-11 4.492197e-11 -1 1911.9608 1028.4314)" class="st0" width="8.71" height="8.71"/>
	
		<rect x="951.63" y="518.57" transform="matrix(-1 -4.492197e-11 4.492197e-11 -1 1911.9608 1045.8431)" class="st0" width="8.71" height="8.71"/>
	
		<rect x="942.92" y="509.86" transform="matrix(-1 -4.492197e-11 4.492197e-11 -1 1894.5491 1028.4314)" class="st0" width="8.71" height="8.71"/>
	
		<rect x="942.92" y="518.57" transform="matrix(-1 -4.481716e-11 4.481716e-11 -1 1894.5491 1045.8431)" class="st0" width="8.71" height="8.71"/>
	
		<rect x="934.22" y="509.86" transform="matrix(-1 -4.481716e-11 4.481716e-11 -1 1877.1372 1028.4314)" class="st0" width="8.71" height="8.71"/>
	
		<rect x="934.22" y="518.57" transform="matrix(-1 -4.492197e-11 4.492197e-11 -1 1877.1372 1045.8431)" class="st0" width="8.71" height="8.71"/>
	
		<rect x="925.51" y="509.86" transform="matrix(-1 -4.492197e-11 4.492197e-11 -1 1859.7255 1028.4314)" class="st0" width="8.71" height="8.71"/>
	
		<rect x="925.51" y="518.57" transform="matrix(-1 -4.492197e-11 4.492197e-11 -1 1859.7255 1045.8431)" class="st0" width="8.71" height="8.71"/>
	
		<rect x="916.8" y="509.86" transform="matrix(-1 -4.492197e-11 4.492197e-11 -1 1842.3137 1028.4314)" class="st0" width="8.71" height="8.71"/>
	
		<rect x="916.8" y="518.57" transform="matrix(-1 -4.492197e-11 4.492197e-11 -1 1842.3137 1045.8431)" class="st0" width="8.71" height="8.71"/>
	
		<rect x="908.1" y="509.86" transform="matrix(-1 -4.492197e-11 4.492197e-11 -1 1824.902 1028.4314)" class="st0" width="8.71" height="8.71"/>
	
		<rect x="899.39" y="509.86" transform="matrix(-1 -4.492197e-11 4.492197e-11 -1 1807.4902 1028.4314)" class="st0" width="8.71" height="8.71"/>
	
		<rect x="890.69" y="509.86" transform="matrix(-1 -4.492197e-11 4.492197e-11 -1 1790.0785 1028.4314)" class="st0" width="8.71" height="8.71"/>
	
		<rect x="881.98" y="509.86" transform="matrix(-1 -4.492197e-11 4.492197e-11 -1 1772.6666 1028.4314)" class="st0" width="8.71" height="8.71"/>
	
		<rect x="908.1" y="518.57" transform="matrix(-1 -4.481716e-11 4.481716e-11 -1 1824.902 1045.8431)" class="st0" width="8.71" height="8.71"/>
	
		<rect x="899.39" y="518.57" transform="matrix(-1 -4.492197e-11 4.492197e-11 -1 1807.4902 1045.8431)" class="st0" width="8.71" height="8.71"/>
	
		<rect x="951.63" y="527.27" transform="matrix(-1 -4.492197e-11 4.492197e-11 -1 1911.9608 1063.2549)" class="st0" width="8.71" height="8.71"/>
	
		<rect x="942.92" y="527.27" transform="matrix(-1 -4.492197e-11 4.492197e-11 -1 1894.5491 1063.2549)" class="st0" width="8.71" height="8.71"/>
	
		<rect x="934.22" y="527.27" transform="matrix(-1 -4.481716e-11 4.481716e-11 -1 1877.1372 1063.2549)" class="st0" width="8.71" height="8.71"/>
	
		<rect x="925.51" y="527.27" transform="matrix(-1 -4.492197e-11 4.492197e-11 -1 1859.7255 1063.2549)" class="st0" width="8.71" height="8.71"/>
	
		<rect x="916.8" y="527.27" transform="matrix(-1 -4.492197e-11 4.492197e-11 -1 1842.3137 1063.2549)" class="st0" width="8.71" height="8.71"/>
	
		<rect x="908.1" y="527.27" transform="matrix(-1 -4.481716e-11 4.481716e-11 -1 1824.902 1063.2549)" class="st0" width="8.71" height="8.71"/>
	
		<rect x="951.63" y="535.98" transform="matrix(-1 -4.471280e-11 4.471280e-11 -1 1911.9608 1080.6666)" class="st0" width="8.71" height="8.71"/>
	
		<rect x="942.92" y="535.98" transform="matrix(-1 -4.513069e-11 4.513069e-11 -1 1894.5491 1080.6666)" class="st0" width="8.71" height="8.71"/>
	
		<rect x="934.22" y="535.98" transform="matrix(-1 -4.471280e-11 4.471280e-11 -1 1877.1372 1080.6666)" class="st0" width="8.71" height="8.71"/>
	
		<rect x="925.51" y="535.98" transform="matrix(-1 -4.513069e-11 4.513069e-11 -1 1859.7255 1080.6666)" class="st0" width="8.71" height="8.71"/>
	
		<rect x="916.8" y="535.98" transform="matrix(-1 -4.471280e-11 4.471280e-11 -1 1842.3137 1080.6666)" class="st0" width="8.71" height="8.71"/>
	
		<rect x="951.63" y="544.69" transform="matrix(-1 -4.471280e-11 4.471280e-11 -1 1911.9608 1098.0785)" class="st0" width="8.71" height="8.71"/>
	
		<rect x="942.92" y="544.69" transform="matrix(-1 -4.492197e-11 4.492197e-11 -1 1894.5491 1098.0785)" class="st0" width="8.71" height="8.71"/>
	
		<rect x="934.22" y="544.69" transform="matrix(-1 -4.492197e-11 4.492197e-11 -1 1877.1372 1098.0785)" class="st0" width="8.71" height="8.71"/>
	
		<rect x="925.51" y="544.69" transform="matrix(-1 -4.492197e-11 4.492197e-11 -1 1859.7255 1098.0785)" class="st0" width="8.71" height="8.71"/>
	
		<rect x="916.8" y="544.69" transform="matrix(-1 -4.492197e-11 4.492197e-11 -1 1842.3137 1098.0785)" class="st0" width="8.71" height="8.71"/>
	
		<rect x="951.63" y="553.39" transform="matrix(-1 -4.492197e-11 4.492197e-11 -1 1911.9608 1115.4902)" class="st0" width="8.71" height="8.71"/>
	
		<rect x="942.92" y="553.39" transform="matrix(-1 -4.471280e-11 4.471280e-11 -1 1894.5491 1115.4902)" class="st0" width="8.71" height="8.71"/>
	
		<rect x="934.22" y="553.39" transform="matrix(-1 -4.513069e-11 4.513069e-11 -1 1877.1372 1115.4902)" class="st0" width="8.71" height="8.71"/>
	
		<rect x="925.51" y="553.39" transform="matrix(-1 -4.471280e-11 4.471280e-11 -1 1859.7255 1115.4902)" class="st0" width="8.71" height="8.71"/>
	
		<rect x="916.8" y="553.39" transform="matrix(-1 -4.513069e-11 4.513069e-11 -1 1842.3137 1115.4902)" class="st0" width="8.71" height="8.71"/>
	
		<rect x="951.63" y="562.1" transform="matrix(-1 -4.492197e-11 4.492197e-11 -1 1911.9608 1132.902)" class="st0" width="8.71" height="8.71"/>
	
		<rect x="942.92" y="562.1" transform="matrix(-1 -4.471280e-11 4.471280e-11 -1 1894.5491 1132.902)" class="st0" width="8.71" height="8.71"/>
	
		<rect x="934.22" y="562.1" transform="matrix(-1 -4.492197e-11 4.492197e-11 -1 1877.1372 1132.902)" class="st0" width="8.71" height="8.71"/>
	
		<rect x="925.51" y="562.1" transform="matrix(-1 -4.492197e-11 4.492197e-11 -1 1859.7255 1132.902)" class="st0" width="8.71" height="8.71"/>
	
		<rect x="916.8" y="562.1" transform="matrix(-1 -4.513069e-11 4.513069e-11 -1 1842.3137 1132.902)" class="st0" width="8.71" height="8.71"/>
	
		<rect x="951.63" y="570.8" transform="matrix(-1 -4.513069e-11 4.513069e-11 -1 1911.9608 1150.3137)" class="st0" width="8.71" height="8.71"/>
	
		<rect x="942.92" y="570.8" transform="matrix(-1 -4.471280e-11 4.471280e-11 -1 1894.5491 1150.3137)" class="st0" width="8.71" height="8.71"/>
	
		<rect x="934.22" y="570.8" transform="matrix(-1 -4.492197e-11 4.492197e-11 -1 1877.1372 1150.3137)" class="st0" width="8.71" height="8.71"/>
	
		<rect x="925.51" y="570.8" transform="matrix(-1 -4.492197e-11 4.492197e-11 -1 1859.7255 1150.3137)" class="st0" width="8.71" height="8.71"/>
	
		<rect x="916.8" y="570.8" transform="matrix(-1 -4.492197e-11 4.492197e-11 -1 1842.3137 1150.3137)" class="st0" width="8.71" height="8.71"/>
	
		<rect x="908.1" y="570.8" transform="matrix(-1 -4.492197e-11 4.492197e-11 -1 1824.902 1150.3137)" class="st0" width="8.71" height="8.71"/>
	
		<rect x="942.92" y="579.51" transform="matrix(-1 -4.492197e-11 4.492197e-11 -1 1894.5491 1167.7255)" class="st0" width="8.71" height="8.71"/>
	
		<rect x="934.22" y="579.51" transform="matrix(-1 -4.471280e-11 4.471280e-11 -1 1877.1372 1167.7255)" class="st0" width="8.71" height="8.71"/>
	
		<rect x="925.51" y="579.51" transform="matrix(-1 -4.513069e-11 4.513069e-11 -1 1859.7255 1167.7255)" class="st0" width="8.71" height="8.71"/>
	
		<rect x="916.8" y="579.51" transform="matrix(-1 -4.492197e-11 4.492197e-11 -1 1842.3137 1167.7255)" class="st0" width="8.71" height="8.71"/>
	
		<rect x="908.1" y="579.51" transform="matrix(-1 -4.492197e-11 4.492197e-11 -1 1824.902 1167.7255)" class="st0" width="8.71" height="8.71"/>
	
		<rect x="934.22" y="588.22" transform="matrix(-1 -4.492197e-11 4.492197e-11 -1 1877.1372 1185.1372)" class="st0" width="8.71" height="8.71"/>
	
		<rect x="925.51" y="588.22" transform="matrix(-1 -4.492197e-11 4.492197e-11 -1 1859.7255 1185.1372)" class="st0" width="8.71" height="8.71"/>
	
		<rect x="916.8" y="588.22" transform="matrix(-1 -4.471280e-11 4.471280e-11 -1 1842.3137 1185.1372)" class="st0" width="8.71" height="8.71"/>
	
		<rect x="908.1" y="588.22" transform="matrix(-1 -4.492197e-11 4.492197e-11 -1 1824.902 1185.1372)" class="st0" width="8.71" height="8.71"/>
	
		<rect x="908.1" y="596.92" transform="matrix(-1 -4.492197e-11 4.492197e-11 -1 1824.902 1202.5491)" class="st0" width="8.71" height="8.71"/>
	
		<rect x="916.8" y="596.92" transform="matrix(-1 -4.471280e-11 4.471280e-11 -1 1842.3137 1202.5491)" class="st0" width="8.71" height="8.71"/>
	
		<rect x="899.39" y="588.22" transform="matrix(-1 -4.492197e-11 4.492197e-11 -1 1807.4902 1185.1372)" class="st0" width="8.71" height="8.71"/>
	
		<rect x="908.1" y="535.98" transform="matrix(-1 -4.492197e-11 4.492197e-11 -1 1824.902 1080.6666)" class="st0" width="8.71" height="8.71"/>
	
		<rect x="899.39" y="527.27" transform="matrix(-1 -4.492197e-11 4.492197e-11 -1 1807.4902 1063.2549)" class="st0" width="8.71" height="8.71"/>
	
		<rect x="890.69" y="518.57" transform="matrix(-1 -4.492197e-11 4.492197e-11 -1 1790.0785 1045.8431)" class="st0" width="8.71" height="8.71"/>
	
		<rect x="934.22" y="492.45" transform="matrix(-1 -4.492197e-11 4.492197e-11 -1 1877.1372 993.6078)" class="st0" width="8.71" height="8.71"/>
	
		<rect x="934.22" y="501.16" transform="matrix(-1 -4.492197e-11 4.492197e-11 -1 1877.1372 1011.0196)" class="st0" width="8.71" height="8.71"/>
	
		<rect x="925.51" y="501.16" transform="matrix(-1 -4.492197e-11 4.492197e-11 -1 1859.7255 1011.0196)" class="st0" width="8.71" height="8.71"/>
	
		<rect x="916.8" y="501.16" transform="matrix(-1 -4.492197e-11 4.492197e-11 -1 1842.3137 1011.0196)" class="st0" width="8.71" height="8.71"/>
	
		<rect x="908.1" y="501.16" transform="matrix(-1 -4.492197e-11 4.492197e-11 -1 1824.902 1011.0196)" class="st0" width="8.71" height="8.71"/>
	
		<rect x="899.39" y="501.16" transform="matrix(-1 -4.481716e-11 4.481716e-11 -1 1807.4902 1011.0196)" class="st0" width="8.71" height="8.71"/>
	
		<rect x="881.98" y="501.16" transform="matrix(-1 -4.492197e-11 4.492197e-11 -1 1772.6666 1011.0196)" class="st0" width="8.71" height="8.71"/>
	
		<rect x="890.69" y="501.16" transform="matrix(-1 -4.492197e-11 4.492197e-11 -1 1790.0785 1011.0196)" class="st0" width="8.71" height="8.71"/>
	
		<rect x="873.27" y="509.86" transform="matrix(-1 -4.481716e-11 4.481716e-11 -1 1755.2549 1028.4314)" class="st0" width="8.71" height="8.71"/>
	
		<rect x="881.98" y="518.57" transform="matrix(-1 -4.481716e-11 4.481716e-11 -1 1772.6666 1045.8431)" class="st0" width="8.71" height="8.71"/>
	
		<rect x="908.1" y="544.69" transform="matrix(-1 -4.471280e-11 4.471280e-11 -1 1824.902 1098.0785)" class="st0" width="8.71" height="8.71"/>
	
		<rect x="890.69" y="527.27" transform="matrix(-1 -4.492197e-11 4.492197e-11 -1 1790.0785 1063.2549)" class="st0" width="8.71" height="8.71"/>
	
		<rect x="899.39" y="535.98" transform="matrix(-1 -4.492197e-11 4.492197e-11 -1 1807.4902 1080.6666)" class="st0" width="8.71" height="8.71"/>
	
		<rect x="908.1" y="553.39" transform="matrix(-1 -4.471280e-11 4.471280e-11 -1 1824.902 1115.4902)" class="st0" width="8.71" height="8.71"/>
	
		<rect x="908.1" y="562.1" transform="matrix(-1 -4.471280e-11 4.471280e-11 -1 1824.902 1132.902)" class="st0" width="8.71" height="8.71"/>
	
		<rect x="899.39" y="570.8" transform="matrix(-1 -4.471280e-11 4.471280e-11 -1 1807.4902 1150.3137)" class="st0" width="8.71" height="8.71"/>
	
		<rect x="899.39" y="579.51" transform="matrix(-1 -4.471280e-11 4.471280e-11 -1 1807.4902 1167.7255)" class="st0" width="8.71" height="8.71"/>
	
		<rect x="890.69" y="588.22" transform="matrix(-1 -4.471280e-11 4.471280e-11 -1 1790.0785 1185.1372)" class="st0" width="8.71" height="8.71"/>
	
		<rect x="890.69" y="596.92" transform="matrix(-1 -4.471280e-11 4.471280e-11 -1 1790.0785 1202.5491)" class="st0" width="8.71" height="8.71"/>
	
		<rect x="899.39" y="596.92" transform="matrix(-1 -4.492197e-11 4.492197e-11 -1 1807.4902 1202.5491)" class="st0" width="8.71" height="8.71"/>
	
		<rect x="899.39" y="605.63" transform="matrix(-1 -4.492197e-11 4.492197e-11 -1 1807.4902 1219.9608)" class="st0" width="8.71" height="8.71"/>
	
		<rect x="908.1" y="605.63" transform="matrix(-1 -4.471280e-11 4.471280e-11 -1 1824.902 1219.9608)" class="st0" width="8.71" height="8.71"/>
	
		<rect x="925.51" y="596.92" transform="matrix(-1 -4.492197e-11 4.492197e-11 -1 1859.7255 1202.5491)" class="st0" width="8.71" height="8.71"/>
	
		<rect x="916.8" y="605.63" transform="matrix(-1 -4.492197e-11 4.492197e-11 -1 1842.3137 1219.9608)" class="st0" width="8.71" height="8.71"/>
	
		<rect x="934.22" y="596.92" transform="matrix(-1 -4.492197e-11 4.492197e-11 -1 1877.1372 1202.5491)" class="st0" width="8.71" height="8.71"/>
	
		<rect x="942.92" y="588.22" transform="matrix(-1 -4.513069e-11 4.513069e-11 -1 1894.5491 1185.1372)" class="st0" width="8.71" height="8.71"/>
	
		<rect x="951.63" y="579.51" transform="matrix(-1 -4.492197e-11 4.492197e-11 -1 1911.9608 1167.7255)" class="st0" width="8.71" height="8.71"/>
</g>
</svg>
